<svg width="20" height="16" viewBox="0 0 20 16" fill="none" xmlns="http://www.w3.org/2000/svg">
<path fill-rule="evenodd" clip-rule="evenodd" d="M6.28033 3.21979C6.57322 3.51269 6.57322 3.98756 6.28033 4.28045L2.56066 8.00012L6.28033 11.7198C6.57322 12.0127 6.57322 12.4876 6.28033 12.7805C5.98744 13.0733 5.51256 13.0733 5.21967 12.7805L0.96967 8.53045C0.676777 8.23756 0.676777 7.76269 0.96967 7.46979L5.21967 3.21979C5.51256 2.9269 5.98744 2.9269 6.28033 3.21979ZM13.7197 3.21979C14.0126 2.9269 14.4874 2.9269 14.7803 3.21979L19.0303 7.46979C19.3232 7.76269 19.3232 8.23756 19.0303 8.53045L14.7803 12.7805C14.4874 13.0733 14.0126 13.0733 13.7197 12.7805C13.4268 12.4876 13.4268 12.0127 13.7197 11.7198L17.4393 8.00012L13.7197 4.28045C13.4268 3.98756 13.4268 3.51269 13.7197 3.21979Z" fill="#0F172A"/>
<path fill-rule="evenodd" clip-rule="evenodd" d="M11.3774 0.011027C11.7856 0.0814047 12.0595 0.469361 11.9891 0.877552L9.48909 15.3776C9.41872 15.7857 9.03076 16.0596 8.62257 15.9892C8.21438 15.9188 7.94053 15.5309 8.0109 15.1227L10.5109 0.622692C10.5813 0.214501 10.9692 -0.0593508 11.3774 0.011027Z" fill="#0F172A"/>
</svg>
