<svg width="280" height="228" viewBox="0 0 280 228" fill="none" xmlns="http://www.w3.org/2000/svg">
<path d="M6 176C6 177.657 4.65685 179 3 179C1.34315 179 0 177.657 0 176C0 174.343 1.34315 173 3 173C4.65685 173 6 174.343 6 176Z" fill="#2FBF71"/>
<path d="M6 10C6 11.6569 4.65685 13 3 13C1.34315 13 0 11.6569 0 10C0 8.34315 1.34315 7 3 7C4.65685 7 6 8.34315 6 10Z" fill="#2FBF71"/>
<path d="M6 93C6 94.6569 4.65685 96 3 96C1.34315 96 0 94.6569 0 93C0 91.3431 1.34315 90 3 90C4.65685 90 6 91.3431 6 93Z" fill="#2FBF71"/>
<path d="M0 34H199V39H0V34Z" fill="#2FBF71"/>
<path d="M0 117H199V122H0V117Z" fill="#2FBF71"/>
<path d="M0 200H199V205H0V200Z" fill="#2FBF71"/>
<path d="M203 34H228V39H203V34Z" fill="#2FBF71"/>
<path d="M203 117H265V122H203V117Z" fill="#2FBF71"/>
<path d="M203 200H265V205H203V200Z" fill="#2FBF71"/>
<path d="M230 34H254V39H230V34Z" fill="#FFF500"/>
<path d="M267 117H273V122H267V117Z" fill="#FFF500"/>
<path d="M267 200H273V205H267V200Z" fill="#FFF500"/>
<path d="M256 34H280V39H256V34Z" fill="#F61067"/>
<path d="M275 117H280V122H275V117Z" fill="#F61067"/>
<path d="M275 200H280V205H275V200Z" fill="#F61067"/>
<path d="M200 34H202V46H200V34Z" fill="white"/>
<path d="M200 117H202V129H200V117Z" fill="white"/>
<path d="M200 200H202V212H200V200Z" fill="white"/>
<path d="M191.693 59.4716C192.717 58.6183 193.533 57.9089 194.141 57.3436C194.749 56.7676 195.255 56.1703 195.661 55.5516C196.066 54.9329 196.269 54.3249 196.269 53.7276C196.269 53.1836 196.141 52.7569 195.885 52.4476C195.629 52.1383 195.234 51.9836 194.701 51.9836C194.167 51.9836 193.757 52.1649 193.469 52.5276C193.181 52.8796 193.031 53.3649 193.021 53.9836H190.845C190.887 52.7036 191.266 51.7329 191.981 51.0716C192.706 50.4103 193.623 50.0796 194.733 50.0796C195.949 50.0796 196.882 50.4049 197.533 51.0556C198.183 51.6956 198.509 52.5436 198.509 53.5996C198.509 54.4316 198.285 55.2263 197.837 55.9836C197.389 56.7409 196.877 57.4023 196.301 57.9676C195.725 58.5223 194.973 59.1943 194.045 59.9836H198.765V61.8396H190.861V60.1756L191.693 59.4716Z" fill="#2FBF71"/>
<path d="M207.637 62.1436C206.911 62.1436 206.261 62.0156 205.685 61.7596C205.109 61.4929 204.65 61.1356 204.309 60.6876C203.978 60.2396 203.797 59.7436 203.765 59.1996H206.021C206.063 59.5409 206.229 59.8236 206.517 60.0476C206.815 60.2716 207.183 60.3836 207.621 60.3836C208.047 60.3836 208.378 60.2983 208.613 60.1276C208.858 59.9569 208.981 59.7383 208.981 59.4716C208.981 59.1836 208.831 58.9703 208.533 58.8316C208.245 58.6823 207.781 58.5223 207.141 58.3516C206.479 58.1916 205.935 58.0263 205.509 57.8556C205.093 57.6849 204.73 57.4236 204.421 57.0716C204.122 56.7196 203.973 56.2449 203.973 55.6476C203.973 55.1569 204.111 54.7089 204.389 54.3036C204.677 53.8983 205.082 53.5783 205.605 53.3436C206.138 53.1089 206.762 52.9916 207.477 52.9916C208.533 52.9916 209.375 53.2583 210.005 53.7916C210.634 54.3143 210.981 55.0236 211.045 55.9196H208.901C208.869 55.5676 208.719 55.2903 208.453 55.0876C208.197 54.8743 207.85 54.7676 207.413 54.7676C207.007 54.7676 206.693 54.8423 206.469 54.9916C206.255 55.1409 206.149 55.3489 206.149 55.6156C206.149 55.9143 206.298 56.1436 206.597 56.3036C206.895 56.4529 207.359 56.6076 207.989 56.7676C208.629 56.9276 209.157 57.0929 209.573 57.2636C209.989 57.4343 210.346 57.7009 210.645 58.0636C210.954 58.4156 211.114 58.8849 211.125 59.4716C211.125 59.9836 210.981 60.4423 210.693 60.8476C210.415 61.2529 210.01 61.5729 209.477 61.8076C208.954 62.0316 208.341 62.1436 207.637 62.1436Z" fill="#2FBF71"/>
<path d="M179.646 135.4V133.336H183.502V145H181.198V135.4H179.646Z" fill="#2FBF71"/>
<path d="M193.139 135.032L188.883 145H186.611L190.899 135.288H185.427V133.368H193.139V135.032Z" fill="#2FBF71"/>
<path d="M209.557 136.008C210.645 136.008 211.52 136.344 212.181 137.016C212.853 137.677 213.189 138.605 213.189 139.8V145H210.949V140.104C210.949 139.411 210.773 138.883 210.421 138.52C210.069 138.147 209.589 137.96 208.981 137.96C208.373 137.96 207.888 138.147 207.525 138.52C207.173 138.883 206.997 139.411 206.997 140.104V145H204.757V140.104C204.757 139.411 204.581 138.883 204.229 138.52C203.877 138.147 203.397 137.96 202.789 137.96C202.171 137.96 201.68 138.147 201.317 138.52C200.965 138.883 200.789 139.411 200.789 140.104V145H198.549V136.136H200.789V137.208C201.077 136.835 201.445 136.541 201.893 136.328C202.352 136.115 202.853 136.008 203.397 136.008C204.091 136.008 204.709 136.157 205.253 136.456C205.797 136.744 206.219 137.16 206.517 137.704C206.805 137.192 207.221 136.781 207.765 136.472C208.32 136.163 208.917 136.008 209.557 136.008Z" fill="#2FBF71"/>
<path d="M218.707 145.144C217.982 145.144 217.331 145.016 216.755 144.76C216.179 144.493 215.72 144.136 215.379 143.688C215.048 143.24 214.867 142.744 214.835 142.2H217.091C217.134 142.541 217.299 142.824 217.587 143.048C217.886 143.272 218.254 143.384 218.691 143.384C219.118 143.384 219.448 143.299 219.683 143.128C219.928 142.957 220.051 142.739 220.051 142.472C220.051 142.184 219.902 141.971 219.603 141.832C219.315 141.683 218.851 141.523 218.211 141.352C217.55 141.192 217.006 141.027 216.579 140.856C216.163 140.685 215.8 140.424 215.491 140.072C215.192 139.72 215.043 139.245 215.043 138.648C215.043 138.157 215.182 137.709 215.459 137.304C215.747 136.899 216.152 136.579 216.675 136.344C217.208 136.109 217.832 135.992 218.547 135.992C219.603 135.992 220.446 136.259 221.075 136.792C221.704 137.315 222.051 138.024 222.115 138.92H219.971C219.939 138.568 219.79 138.291 219.523 138.088C219.267 137.875 218.92 137.768 218.483 137.768C218.078 137.768 217.763 137.843 217.539 137.992C217.326 138.141 217.219 138.349 217.219 138.616C217.219 138.915 217.368 139.144 217.667 139.304C217.966 139.453 218.43 139.608 219.059 139.768C219.699 139.928 220.227 140.093 220.643 140.264C221.059 140.435 221.416 140.701 221.715 141.064C222.024 141.416 222.184 141.885 222.195 142.472C222.195 142.984 222.051 143.443 221.763 143.848C221.486 144.253 221.08 144.573 220.547 144.808C220.024 145.032 219.411 145.144 218.707 145.144Z" fill="#2FBF71"/>
<path d="M196.676 222.016C196.676 220.17 197.007 218.725 197.668 217.68C198.34 216.634 199.45 216.112 200.996 216.112C202.543 216.112 203.647 216.634 204.308 217.68C204.98 218.725 205.316 220.17 205.316 222.016C205.316 223.872 204.98 225.328 204.308 226.384C203.647 227.44 202.543 227.968 200.996 227.968C199.45 227.968 198.34 227.44 197.668 226.384C197.007 225.328 196.676 223.872 196.676 222.016ZM203.108 222.016C203.108 221.226 203.055 220.565 202.948 220.032C202.852 219.488 202.65 219.045 202.34 218.704C202.042 218.362 201.594 218.192 200.996 218.192C200.399 218.192 199.946 218.362 199.636 218.704C199.338 219.045 199.135 219.488 199.028 220.032C198.932 220.565 198.884 221.226 198.884 222.016C198.884 222.826 198.932 223.509 199.028 224.064C199.124 224.608 199.327 225.05 199.636 225.392C199.946 225.722 200.399 225.888 200.996 225.888C201.594 225.888 202.047 225.722 202.356 225.392C202.666 225.05 202.868 224.608 202.964 224.064C203.06 223.509 203.108 222.826 203.108 222.016Z" fill="#2FBF71"/>
<path d="M16.3909 13.2238H20.0709V14.9998H14.1509V3.83182H16.3909V13.2238Z" fill="white"/>
<path d="M20.9186 10.5358C20.9186 9.63982 21.0946 8.84515 21.4466 8.15182C21.8093 7.45849 22.2946 6.92515 22.9026 6.55182C23.5213 6.17849 24.2093 5.99182 24.9666 5.99182C25.628 5.99182 26.204 6.12515 26.6946 6.39182C27.196 6.65849 27.596 6.99449 27.8946 7.39982V6.13582H30.1506V14.9998H27.8946V13.7038C27.6066 14.1198 27.2066 14.4665 26.6946 14.7438C26.1933 15.0105 25.612 15.1438 24.9506 15.1438C24.204 15.1438 23.5213 14.9518 22.9026 14.5678C22.2946 14.1838 21.8093 13.6452 21.4466 12.9518C21.0946 12.2478 20.9186 11.4425 20.9186 10.5358ZM27.8946 10.5678C27.8946 10.0238 27.788 9.55982 27.5746 9.17582C27.3613 8.78115 27.0733 8.48249 26.7106 8.27982C26.348 8.06649 25.9586 7.95982 25.5426 7.95982C25.1266 7.95982 24.7426 8.06115 24.3906 8.26382C24.0386 8.46649 23.7506 8.76515 23.5266 9.15982C23.3133 9.54382 23.2066 10.0025 23.2066 10.5358C23.2066 11.0692 23.3133 11.5385 23.5266 11.9438C23.7506 12.3385 24.0386 12.6425 24.3906 12.8558C24.7533 13.0692 25.1373 13.1758 25.5426 13.1758C25.9586 13.1758 26.348 13.0745 26.7106 12.8718C27.0733 12.6585 27.3613 12.3598 27.5746 11.9758C27.788 11.5812 27.8946 11.1118 27.8946 10.5678Z" fill="white"/>
<path d="M34.5784 7.51182C34.8664 7.04249 35.2397 6.67449 35.6984 6.40782C36.1677 6.14115 36.701 6.00782 37.2984 6.00782V8.35982H36.7064C36.0024 8.35982 35.469 8.52515 35.1064 8.85582C34.7544 9.18649 34.5784 9.76249 34.5784 10.5838V14.9998H32.3384V6.13582H34.5784V7.51182Z" fill="white"/>
<path d="M42.2791 5.99182C42.9405 5.99182 43.5218 6.12515 44.0231 6.39182C44.5245 6.64782 44.9191 6.98382 45.2071 7.39982V6.13582H47.4631V15.0638C47.4631 15.8852 47.2978 16.6158 46.9671 17.2558C46.6365 17.9065 46.1405 18.4185 45.4791 18.7918C44.8178 19.1758 44.0178 19.3678 43.0791 19.3678C41.8205 19.3678 40.7858 19.0745 39.9751 18.4878C39.1751 17.9012 38.7218 17.1012 38.6151 16.0878H40.8391C40.9565 16.4932 41.2071 16.8132 41.5911 17.0478C41.9858 17.2932 42.4605 17.4158 43.0151 17.4158C43.6658 17.4158 44.1938 17.2185 44.5991 16.8238C45.0045 16.4398 45.2071 15.8532 45.2071 15.0638V13.6878C44.9191 14.1038 44.5191 14.4505 44.0071 14.7278C43.5058 15.0052 42.9298 15.1438 42.2791 15.1438C41.5325 15.1438 40.8498 14.9518 40.2311 14.5678C39.6125 14.1838 39.1218 13.6452 38.7591 12.9518C38.4071 12.2478 38.2311 11.4425 38.2311 10.5358C38.2311 9.63982 38.4071 8.84515 38.7591 8.15182C39.1218 7.45849 39.6071 6.92515 40.2151 6.55182C40.8338 6.17849 41.5218 5.99182 42.2791 5.99182ZM45.2071 10.5678C45.2071 10.0238 45.1005 9.55982 44.8871 9.17582C44.6738 8.78115 44.3858 8.48249 44.0231 8.27982C43.6605 8.06649 43.2711 7.95982 42.8551 7.95982C42.4391 7.95982 42.0551 8.06115 41.7031 8.26382C41.3511 8.46649 41.0631 8.76515 40.8391 9.15982C40.6258 9.54382 40.5191 10.0025 40.5191 10.5358C40.5191 11.0692 40.6258 11.5385 40.8391 11.9438C41.0631 12.3385 41.3511 12.6425 41.7031 12.8558C42.0658 13.0692 42.4498 13.1758 42.8551 13.1758C43.2711 13.1758 43.6605 13.0745 44.0231 12.8718C44.3858 12.6585 44.6738 12.3598 44.8871 11.9758C45.1005 11.5812 45.2071 11.1118 45.2071 10.5678Z" fill="white"/>
<path d="M57.8909 10.3758C57.8909 10.6958 57.8695 10.9838 57.8269 11.2398H51.3469C51.4002 11.8798 51.6242 12.3812 52.0189 12.7438C52.4135 13.1065 52.8989 13.2878 53.4749 13.2878C54.3069 13.2878 54.8989 12.9305 55.2509 12.2158H57.6669C57.4109 13.0692 56.9202 13.7732 56.1949 14.3278C55.4695 14.8718 54.5789 15.1438 53.5229 15.1438C52.6695 15.1438 51.9015 14.9572 51.2189 14.5838C50.5469 14.1998 50.0189 13.6612 49.6349 12.9678C49.2615 12.2745 49.0749 11.4745 49.0749 10.5678C49.0749 9.65049 49.2615 8.84515 49.6349 8.15182C50.0082 7.45849 50.5309 6.92515 51.2029 6.55182C51.8749 6.17849 52.6482 5.99182 53.5229 5.99182C54.3655 5.99182 55.1175 6.17315 55.7789 6.53582C56.4509 6.89849 56.9682 7.41582 57.3309 8.08782C57.7042 8.74915 57.8909 9.51182 57.8909 10.3758ZM55.5709 9.73582C55.5602 9.15982 55.3522 8.70115 54.9469 8.35982C54.5415 8.00782 54.0455 7.83182 53.4589 7.83182C52.9042 7.83182 52.4349 8.00249 52.0509 8.34382C51.6775 8.67449 51.4482 9.13849 51.3629 9.73582H55.5709Z" fill="white"/>
<path d="M62.9179 15.1438C62.1925 15.1438 61.5419 15.0158 60.9659 14.7598C60.3899 14.4932 59.9312 14.1358 59.5899 13.6878C59.2592 13.2398 59.0779 12.7438 59.0459 12.1998H61.3019C61.3445 12.5412 61.5099 12.8238 61.7979 13.0478C62.0965 13.2718 62.4645 13.3838 62.9019 13.3838C63.3285 13.3838 63.6592 13.2985 63.8939 13.1278C64.1392 12.9572 64.2619 12.7385 64.2619 12.4718C64.2619 12.1838 64.1125 11.9705 63.8139 11.8318C63.5259 11.6825 63.0619 11.5225 62.4219 11.3518C61.7605 11.1918 61.2165 11.0265 60.7899 10.8558C60.3739 10.6852 60.0112 10.4238 59.7019 10.0718C59.4032 9.71982 59.2539 9.24515 59.2539 8.64782C59.2539 8.15715 59.3925 7.70915 59.6699 7.30382C59.9579 6.89849 60.3632 6.57849 60.8859 6.34382C61.4192 6.10915 62.0432 5.99182 62.7579 5.99182C63.8139 5.99182 64.6565 6.25849 65.2859 6.79182C65.9152 7.31449 66.2619 8.02382 66.3259 8.91982H64.1819C64.1499 8.56782 64.0005 8.29049 63.7339 8.08782C63.4779 7.87449 63.1312 7.76782 62.6939 7.76782C62.2885 7.76782 61.9739 7.84249 61.7499 7.99182C61.5365 8.14115 61.4299 8.34915 61.4299 8.61582C61.4299 8.91449 61.5792 9.14382 61.8779 9.30382C62.1765 9.45315 62.6405 9.60782 63.2699 9.76782C63.9099 9.92782 64.4379 10.0932 64.8539 10.2638C65.2699 10.4345 65.6272 10.7012 65.9259 11.0638C66.2352 11.4158 66.3952 11.8852 66.4059 12.4718C66.4059 12.9838 66.2619 13.4425 65.9739 13.8478C65.6965 14.2532 65.2912 14.5732 64.7579 14.8078C64.2352 15.0318 63.6219 15.1438 62.9179 15.1438Z" fill="white"/>
<path d="M70.8526 7.97582V12.2638C70.8526 12.5625 70.922 12.7812 71.0606 12.9198C71.21 13.0478 71.4553 13.1118 71.7966 13.1118H72.8366V14.9998H71.4286C69.5406 14.9998 68.5966 14.0825 68.5966 12.2478V7.97582H67.5406V6.13582H68.5966V3.94382H70.8526V6.13582H72.8366V7.97582H70.8526Z" fill="white"/>
<path d="M77.7163 9.39982C77.7163 8.30115 77.9616 7.31982 78.4523 6.45582C78.9536 5.58115 79.6309 4.90382 80.4843 4.42382C81.3483 3.93315 82.3136 3.68782 83.3802 3.68782C84.6282 3.68782 85.7216 4.00782 86.6602 4.64782C87.5989 5.28782 88.2549 6.17315 88.6283 7.30382H86.0523C85.7963 6.77049 85.4336 6.37049 84.9642 6.10382C84.5056 5.83715 83.9723 5.70382 83.3643 5.70382C82.7136 5.70382 82.1323 5.85849 81.6203 6.16782C81.1189 6.46649 80.7242 6.89315 80.4362 7.44782C80.1589 8.00249 80.0202 8.65315 80.0202 9.39982C80.0202 10.1358 80.1589 10.7865 80.4362 11.3518C80.7242 11.9065 81.1189 12.3385 81.6203 12.6478C82.1323 12.9465 82.7136 13.0958 83.3643 13.0958C83.9723 13.0958 84.5056 12.9625 84.9642 12.6958C85.4336 12.4185 85.7963 12.0132 86.0523 11.4798H88.6283C88.2549 12.6212 87.5989 13.5118 86.6602 14.1518C85.7322 14.7812 84.6389 15.0958 83.3802 15.0958C82.3136 15.0958 81.3483 14.8558 80.4843 14.3758C79.6309 13.8852 78.9536 13.2078 78.4523 12.3438C77.9616 11.4798 77.7163 10.4985 77.7163 9.39982Z" fill="white"/>
<path d="M94.4775 15.1438C93.6242 15.1438 92.8562 14.9572 92.1735 14.5838C91.4908 14.1998 90.9522 13.6612 90.5575 12.9678C90.1735 12.2745 89.9815 11.4745 89.9815 10.5678C89.9815 9.66115 90.1788 8.86115 90.5735 8.16782C90.9788 7.47449 91.5282 6.94115 92.2215 6.56782C92.9148 6.18382 93.6882 5.99182 94.5415 5.99182C95.3948 5.99182 96.1682 6.18382 96.8615 6.56782C97.5548 6.94115 98.0988 7.47449 98.4935 8.16782C98.8988 8.86115 99.1015 9.66115 99.1015 10.5678C99.1015 11.4745 98.8935 12.2745 98.4775 12.9678C98.0722 13.6612 97.5175 14.1998 96.8135 14.5838C96.1202 14.9572 95.3415 15.1438 94.4775 15.1438ZM94.4775 13.1918C94.8828 13.1918 95.2615 13.0958 95.6135 12.9038C95.9762 12.7012 96.2642 12.4025 96.4775 12.0078C96.6908 11.6132 96.7975 11.1332 96.7975 10.5678C96.7975 9.72515 96.5735 9.07982 96.1255 8.63182C95.6882 8.17315 95.1495 7.94382 94.5095 7.94382C93.8695 7.94382 93.3308 8.17315 92.8935 8.63182C92.4668 9.07982 92.2535 9.72515 92.2535 10.5678C92.2535 11.4105 92.4615 12.0612 92.8775 12.5198C93.3042 12.9678 93.8375 13.1918 94.4775 13.1918Z" fill="white"/>
<path d="M105.657 6.00782C106.713 6.00782 107.566 6.34382 108.217 7.01582C108.867 7.67715 109.193 8.60515 109.193 9.79982V14.9998H106.953V10.1038C106.953 9.39982 106.777 8.86115 106.425 8.48782C106.073 8.10382 105.593 7.91182 104.985 7.91182C104.366 7.91182 103.875 8.10382 103.513 8.48782C103.161 8.86115 102.985 9.39982 102.985 10.1038V14.9998H100.745V6.13582H102.985V7.23982C103.283 6.85582 103.662 6.55715 104.121 6.34382C104.59 6.11982 105.102 6.00782 105.657 6.00782Z" fill="white"/>
<path d="M113.931 7.97582V12.2638C113.931 12.5625 114 12.7812 114.139 12.9198C114.288 13.0478 114.533 13.1118 114.875 13.1118H115.915V14.9998H114.507C112.619 14.9998 111.675 14.0825 111.675 12.2478V7.97582H110.619V6.13582H111.675V3.94382H113.931V6.13582H115.915V7.97582H113.931Z" fill="white"/>
<path d="M125.766 10.3758C125.766 10.6958 125.745 10.9838 125.702 11.2398H119.222C119.275 11.8798 119.499 12.3812 119.894 12.7438C120.289 13.1065 120.774 13.2878 121.35 13.2878C122.182 13.2878 122.774 12.9305 123.126 12.2158H125.542C125.286 13.0692 124.795 13.7732 124.07 14.3278C123.345 14.8718 122.454 15.1438 121.398 15.1438C120.545 15.1438 119.777 14.9572 119.094 14.5838C118.422 14.1998 117.894 13.6612 117.51 12.9678C117.137 12.2745 116.95 11.4745 116.95 10.5678C116.95 9.65049 117.137 8.84515 117.51 8.15182C117.883 7.45849 118.406 6.92515 119.078 6.55182C119.75 6.17849 120.523 5.99182 121.398 5.99182C122.241 5.99182 122.993 6.17315 123.654 6.53582C124.326 6.89849 124.843 7.41582 125.206 8.08782C125.579 8.74915 125.766 9.51182 125.766 10.3758ZM123.446 9.73582C123.435 9.15982 123.227 8.70115 122.822 8.35982C122.417 8.00782 121.921 7.83182 121.334 7.83182C120.779 7.83182 120.31 8.00249 119.926 8.34382C119.553 8.67449 119.323 9.13849 119.238 9.73582H123.446Z" fill="white"/>
<path d="M132.313 6.00782C133.369 6.00782 134.222 6.34382 134.873 7.01582C135.524 7.67715 135.849 8.60515 135.849 9.79982V14.9998H133.609V10.1038C133.609 9.39982 133.433 8.86115 133.081 8.48782C132.729 8.10382 132.249 7.91182 131.641 7.91182C131.022 7.91182 130.532 8.10382 130.169 8.48782C129.817 8.86115 129.641 9.39982 129.641 10.1038V14.9998H127.401V6.13582H129.641V7.23982C129.94 6.85582 130.318 6.55715 130.777 6.34382C131.246 6.11982 131.758 6.00782 132.313 6.00782Z" fill="white"/>
<path d="M140.587 7.97582V12.2638C140.587 12.5625 140.656 12.7812 140.795 12.9198C140.944 13.0478 141.19 13.1118 141.531 13.1118H142.571V14.9998H141.163C139.275 14.9998 138.331 14.0825 138.331 12.2478V7.97582H137.275V6.13582H138.331V3.94382H140.587V6.13582H142.571V7.97582H140.587Z" fill="white"/>
<path d="M148.246 7.97582H146.694V14.9998H144.422V7.97582H143.414V6.13582H144.422V5.68782C144.422 4.59982 144.731 3.79982 145.35 3.28782C145.969 2.77582 146.902 2.53582 148.15 2.56782V4.45582C147.606 4.44515 147.227 4.53582 147.014 4.72782C146.801 4.91982 146.694 5.26649 146.694 5.76782V6.13582H148.246V7.97582Z" fill="white"/>
<path d="M158.066 6.13582V14.9998H155.81V13.8798C155.522 14.2638 155.143 14.5678 154.674 14.7918C154.215 15.0052 153.714 15.1118 153.17 15.1118C152.476 15.1118 151.863 14.9678 151.33 14.6798C150.796 14.3812 150.375 13.9492 150.066 13.3838C149.767 12.8078 149.618 12.1252 149.618 11.3358V6.13582H151.858V11.0158C151.858 11.7198 152.034 12.2638 152.386 12.6478C152.738 13.0212 153.218 13.2078 153.826 13.2078C154.444 13.2078 154.93 13.0212 155.282 12.6478C155.634 12.2638 155.81 11.7198 155.81 11.0158V6.13582H158.066Z" fill="white"/>
<path d="M162.516 3.15982V14.9998H160.276V3.15982H162.516Z" fill="white"/>
<path d="M176.686 7.28782C176.686 7.88515 176.541 8.44515 176.253 8.96782C175.976 9.49049 175.534 9.91182 174.926 10.2318C174.328 10.5518 173.571 10.7118 172.654 10.7118H170.781V14.9998H168.542V3.83182H172.654C173.518 3.83182 174.253 3.98115 174.861 4.27982C175.469 4.57849 175.923 4.98915 176.221 5.51182C176.531 6.03449 176.686 6.62649 176.686 7.28782ZM172.557 8.90382C173.176 8.90382 173.635 8.76515 173.934 8.48782C174.232 8.19982 174.382 7.79982 174.382 7.28782C174.382 6.19982 173.773 5.65582 172.557 5.65582H170.781V8.90382H172.557Z" fill="white"/>
<path d="M177.7 10.5358C177.7 9.63982 177.876 8.84515 178.228 8.15182C178.591 7.45849 179.076 6.92515 179.684 6.55182C180.303 6.17849 180.991 5.99182 181.748 5.99182C182.409 5.99182 182.985 6.12515 183.476 6.39182C183.977 6.65849 184.377 6.99449 184.676 7.39982V6.13582H186.932V14.9998H184.676V13.7038C184.388 14.1198 183.988 14.4665 183.476 14.7438C182.975 15.0105 182.393 15.1438 181.732 15.1438C180.985 15.1438 180.303 14.9518 179.684 14.5678C179.076 14.1838 178.591 13.6452 178.228 12.9518C177.876 12.2478 177.7 11.4425 177.7 10.5358ZM184.676 10.5678C184.676 10.0238 184.569 9.55982 184.356 9.17582C184.143 8.78115 183.855 8.48249 183.492 8.27982C183.129 8.06649 182.74 7.95982 182.324 7.95982C181.908 7.95982 181.524 8.06115 181.172 8.26382C180.82 8.46649 180.532 8.76515 180.308 9.15982C180.095 9.54382 179.988 10.0025 179.988 10.5358C179.988 11.0692 180.095 11.5385 180.308 11.9438C180.532 12.3385 180.82 12.6425 181.172 12.8558C181.535 13.0692 181.919 13.1758 182.324 13.1758C182.74 13.1758 183.129 13.0745 183.492 12.8718C183.855 12.6585 184.143 12.3598 184.356 11.9758C184.569 11.5812 184.676 11.1118 184.676 10.5678Z" fill="white"/>
<path d="M190.256 5.07982C189.861 5.07982 189.53 4.95715 189.264 4.71182C189.008 4.45582 188.88 4.14115 188.88 3.76782C188.88 3.39449 189.008 3.08515 189.264 2.83982C189.53 2.58382 189.861 2.45582 190.256 2.45582C190.65 2.45582 190.976 2.58382 191.232 2.83982C191.498 3.08515 191.632 3.39449 191.632 3.76782C191.632 4.14115 191.498 4.45582 191.232 4.71182C190.976 4.95715 190.65 5.07982 190.256 5.07982ZM191.36 6.13582V14.9998H189.12V6.13582H191.36Z" fill="white"/>
<path d="M198.485 6.00782C199.541 6.00782 200.394 6.34382 201.045 7.01582C201.695 7.67715 202.021 8.60515 202.021 9.79982V14.9998H199.781V10.1038C199.781 9.39982 199.605 8.86115 199.253 8.48782C198.901 8.10382 198.421 7.91182 197.813 7.91182C197.194 7.91182 196.703 8.10382 196.341 8.48782C195.989 8.86115 195.813 9.39982 195.813 10.1038V14.9998H193.573V6.13582H195.813V7.23982C196.111 6.85582 196.49 6.55715 196.949 6.34382C197.418 6.11982 197.93 6.00782 198.485 6.00782Z" fill="white"/>
<path d="M206.759 7.97582V12.2638C206.759 12.5625 206.828 12.7812 206.967 12.9198C207.116 13.0478 207.362 13.1118 207.703 13.1118H208.743V14.9998H207.335C205.447 14.9998 204.503 14.0825 204.503 12.2478V7.97582H203.447V6.13582H204.503V3.94382H206.759V6.13582H208.743V7.97582H206.759Z" fill="white"/>
<path d="M218.038 18.1518C217.004 17.1492 216.198 15.8692 215.622 14.3118C215.057 12.7545 214.775 11.0852 214.775 9.30382C214.775 7.47982 215.073 5.76782 215.671 4.16782C216.268 2.55715 217.137 1.23982 218.279 0.21582H220.535V0.42382C219.361 1.54382 218.465 2.88782 217.846 4.45582C217.238 6.02382 216.934 7.63982 216.934 9.30382C216.934 10.9252 217.222 12.4932 217.798 14.0078C218.385 15.5118 219.217 16.8185 220.294 17.9278V18.1518H218.038Z" fill="white"/>
<path d="M224.172 13.2238H227.852V14.9998H221.932V3.83182H224.172V13.2238Z" fill="white"/>
<path d="M228.732 9.39982C228.732 8.30115 228.977 7.31982 229.468 6.45582C229.969 5.58115 230.647 4.90382 231.5 4.42382C232.364 3.93315 233.329 3.68782 234.396 3.68782C235.644 3.68782 236.737 4.00782 237.676 4.64782C238.615 5.28782 239.271 6.17315 239.644 7.30382H237.068C236.812 6.77049 236.449 6.37049 235.98 6.10382C235.521 5.83715 234.988 5.70382 234.38 5.70382C233.729 5.70382 233.148 5.85849 232.636 6.16782C232.135 6.46649 231.74 6.89315 231.452 7.44782C231.175 8.00249 231.036 8.65315 231.036 9.39982C231.036 10.1358 231.175 10.7865 231.452 11.3518C231.74 11.9065 232.135 12.3385 232.636 12.6478C233.148 12.9465 233.729 13.0958 234.38 13.0958C234.988 13.0958 235.521 12.9625 235.98 12.6958C236.449 12.4185 236.812 12.0132 237.068 11.4798H239.644C239.271 12.6212 238.615 13.5118 237.676 14.1518C236.748 14.7812 235.655 15.0958 234.396 15.0958C233.329 15.0958 232.364 14.8558 231.5 14.3758C230.647 13.8852 229.969 13.2078 229.468 12.3438C228.977 11.4798 228.732 10.4985 228.732 9.39982Z" fill="white"/>
<path d="M249.701 7.28782C249.701 7.88515 249.557 8.44515 249.269 8.96782C248.992 9.49049 248.549 9.91182 247.941 10.2318C247.344 10.5518 246.586 10.7118 245.669 10.7118H243.797V14.9998H241.557V3.83182H245.669C246.533 3.83182 247.269 3.98115 247.877 4.27982C248.485 4.57849 248.938 4.98915 249.237 5.51182C249.546 6.03449 249.701 6.62649 249.701 7.28782ZM245.573 8.90382C246.192 8.90382 246.65 8.76515 246.949 8.48782C247.248 8.19982 247.397 7.79982 247.397 7.28782C247.397 6.19982 246.789 5.65582 245.573 5.65582H243.797V8.90382H245.573Z" fill="white"/>
<path d="M250.715 18.1518V17.9278C251.793 16.8185 252.619 15.5118 253.195 14.0078C253.782 12.4932 254.076 10.9252 254.076 9.30382C254.076 7.63982 253.766 6.02382 253.148 4.45582C252.54 2.88782 251.649 1.54382 250.475 0.42382V0.21582H252.732C253.873 1.23982 254.742 2.55715 255.34 4.16782C255.937 5.76782 256.236 7.47982 256.236 9.30382C256.236 11.0852 255.948 12.7545 255.372 14.3118C254.806 15.8692 254.006 17.1492 252.971 18.1518H250.715Z" fill="white"/>
<path d="M21 86.8318V88.6398H16.344V91.5038H19.912V93.2798H16.344V97.9998H14.104V86.8318H21Z" fill="white"/>
<path d="M23.7244 88.0798C23.3297 88.0798 22.999 87.9572 22.7324 87.7118C22.4764 87.4558 22.3484 87.1412 22.3484 86.7678C22.3484 86.3945 22.4764 86.0852 22.7324 85.8398C22.999 85.5838 23.3297 85.4558 23.7244 85.4558C24.119 85.4558 24.4444 85.5838 24.7004 85.8398C24.967 86.0852 25.1004 86.3945 25.1004 86.7678C25.1004 87.1412 24.967 87.4558 24.7004 87.7118C24.4444 87.9572 24.119 88.0798 23.7244 88.0798ZM24.8284 89.1358V97.9998H22.5884V89.1358H24.8284Z" fill="white"/>
<path d="M29.2815 90.5118C29.5695 90.0425 29.9428 89.6745 30.4015 89.4078C30.8708 89.1412 31.4042 89.0078 32.0015 89.0078V91.3598H31.4095C30.7055 91.3598 30.1722 91.5252 29.8095 91.8558C29.4575 92.1865 29.2815 92.7625 29.2815 93.5838V97.9998H27.0415V89.1358H29.2815V90.5118Z" fill="white"/>
<path d="M36.9023 98.1438C36.1769 98.1438 35.5263 98.0158 34.9503 97.7598C34.3743 97.4932 33.9156 97.1358 33.5743 96.6878C33.2436 96.2398 33.0623 95.7438 33.0303 95.1998H35.2863C35.3289 95.5412 35.4943 95.8238 35.7823 96.0478C36.0809 96.2718 36.4489 96.3838 36.8863 96.3838C37.3129 96.3838 37.6436 96.2985 37.8783 96.1278C38.1236 95.9572 38.2463 95.7385 38.2463 95.4718C38.2463 95.1838 38.0969 94.9705 37.7983 94.8318C37.5103 94.6825 37.0463 94.5225 36.4063 94.3518C35.7449 94.1918 35.2009 94.0265 34.7743 93.8558C34.3583 93.6852 33.9956 93.4238 33.6863 93.0718C33.3876 92.7198 33.2383 92.2452 33.2383 91.6478C33.2383 91.1572 33.3769 90.7092 33.6543 90.3038C33.9423 89.8985 34.3476 89.5785 34.8703 89.3438C35.4036 89.1092 36.0276 88.9918 36.7423 88.9918C37.7983 88.9918 38.6409 89.2585 39.2703 89.7918C39.8996 90.3145 40.2463 91.0238 40.3103 91.9198H38.1663C38.1343 91.5678 37.9849 91.2905 37.7183 91.0878C37.4623 90.8745 37.1156 90.7678 36.6783 90.7678C36.2729 90.7678 35.9583 90.8425 35.7343 90.9918C35.5209 91.1412 35.4143 91.3492 35.4143 91.6158C35.4143 91.9145 35.5636 92.1438 35.8623 92.3038C36.1609 92.4532 36.6249 92.6078 37.2543 92.7678C37.8943 92.9278 38.4223 93.0932 38.8383 93.2638C39.2543 93.4345 39.6116 93.7012 39.9103 94.0638C40.2196 94.4158 40.3796 94.8852 40.3903 95.4718C40.3903 95.9838 40.2463 96.4425 39.9583 96.8478C39.6809 97.2532 39.2756 97.5732 38.7423 97.8078C38.2196 98.0318 37.6063 98.1438 36.9023 98.1438Z" fill="white"/>
<path d="M44.837 90.9758V95.2638C44.837 95.5625 44.9063 95.7812 45.045 95.9198C45.1943 96.0478 45.4397 96.1118 45.781 96.1118H46.821V97.9998H45.413C43.525 97.9998 42.581 97.0825 42.581 95.2478V90.9758H41.525V89.1358H42.581V86.9438H44.837V89.1358H46.821V90.9758H44.837Z" fill="white"/>
<path d="M54.4846 86.8318V97.9998H52.2446V86.8318H54.4846Z" fill="white"/>
<path d="M61.6098 89.0078C62.6658 89.0078 63.5191 89.3438 64.1698 90.0158C64.8204 90.6772 65.1458 91.6052 65.1458 92.7998V97.9998H62.9058V93.1038C62.9058 92.3998 62.7298 91.8612 62.3778 91.4878C62.0258 91.1038 61.5458 90.9118 60.9378 90.9118C60.3191 90.9118 59.8284 91.1038 59.4658 91.4878C59.1138 91.8612 58.9378 92.3998 58.9378 93.1038V97.9998H56.6978V89.1358H58.9378V90.2398C59.2364 89.8558 59.6151 89.5572 60.0738 89.3438C60.5431 89.1198 61.0551 89.0078 61.6098 89.0078Z" fill="white"/>
<path d="M69.5159 90.4158C69.8039 90.0105 70.1985 89.6745 70.6999 89.4078C71.2119 89.1305 71.7932 88.9918 72.4439 88.9918C73.2012 88.9918 73.8839 89.1785 74.4919 89.5518C75.1105 89.9252 75.5959 90.4585 75.9479 91.1518C76.3105 91.8345 76.4919 92.6292 76.4919 93.5358C76.4919 94.4425 76.3105 95.2478 75.9479 95.9518C75.5959 96.6452 75.1105 97.1838 74.4919 97.5678C73.8839 97.9518 73.2012 98.1438 72.4439 98.1438C71.7932 98.1438 71.2172 98.0105 70.7159 97.7438C70.2252 97.4772 69.8252 97.1412 69.5159 96.7358V102.224H67.2759V89.1358H69.5159V90.4158ZM74.2039 93.5358C74.2039 93.0025 74.0919 92.5438 73.8679 92.1598C73.6545 91.7652 73.3665 91.4665 73.0039 91.2638C72.6519 91.0612 72.2679 90.9598 71.8519 90.9598C71.4465 90.9598 71.0625 91.0665 70.6999 91.2798C70.3479 91.4825 70.0599 91.7812 69.8359 92.1758C69.6225 92.5705 69.5159 93.0345 69.5159 93.5678C69.5159 94.1012 69.6225 94.5652 69.8359 94.9598C70.0599 95.3545 70.3479 95.6585 70.6999 95.8718C71.0625 96.0745 71.4465 96.1758 71.8519 96.1758C72.2679 96.1758 72.6519 96.0692 73.0039 95.8558C73.3665 95.6425 73.6545 95.3385 73.8679 94.9438C74.0919 94.5492 74.2039 94.0798 74.2039 93.5358Z" fill="white"/>
<path d="M86.4876 89.1358V97.9998H84.2316V96.8798C83.9436 97.2638 83.565 97.5678 83.0956 97.7918C82.637 98.0052 82.1356 98.1118 81.5916 98.1118C80.8983 98.1118 80.285 97.9678 79.7516 97.6798C79.2183 97.3812 78.797 96.9492 78.4876 96.3838C78.189 95.8078 78.0396 95.1252 78.0396 94.3358V89.1358H80.2796V94.0158C80.2796 94.7198 80.4556 95.2638 80.8076 95.6478C81.1596 96.0212 81.6396 96.2078 82.2476 96.2078C82.8663 96.2078 83.3516 96.0212 83.7036 95.6478C84.0556 95.2638 84.2316 94.7198 84.2316 94.0158V89.1358H86.4876Z" fill="white"/>
<path d="M91.3058 90.9758V95.2638C91.3058 95.5625 91.3751 95.7812 91.5137 95.9198C91.6631 96.0478 91.9084 96.1118 92.2498 96.1118H93.2897V97.9998H91.8818C89.9938 97.9998 89.0498 97.0825 89.0498 95.2478V90.9758H87.9938V89.1358H89.0498V86.9438H91.3058V89.1358H93.2897V90.9758H91.3058Z" fill="white"/>
<path d="M102.617 86.8318C103.791 86.8318 104.82 87.0612 105.705 87.5198C106.601 87.9785 107.289 88.6345 107.769 89.4878C108.26 90.3305 108.505 91.3118 108.505 92.4318C108.505 93.5518 108.26 94.5332 107.769 95.3758C107.289 96.2078 106.601 96.8532 105.705 97.3118C104.82 97.7705 103.791 97.9998 102.617 97.9998H98.7134V86.8318H102.617ZM102.537 96.0958C103.711 96.0958 104.617 95.7758 105.257 95.1358C105.897 94.4958 106.217 93.5945 106.217 92.4318C106.217 91.2692 105.897 90.3625 105.257 89.7118C104.617 89.0505 103.711 88.7198 102.537 88.7198H100.953V96.0958H102.537Z" fill="white"/>
<path d="M118.422 93.3758C118.422 93.6958 118.401 93.9838 118.358 94.2398H111.878C111.931 94.8798 112.155 95.3812 112.55 95.7438C112.945 96.1065 113.43 96.2878 114.006 96.2878C114.838 96.2878 115.43 95.9305 115.782 95.2158H118.198C117.942 96.0692 117.451 96.7732 116.726 97.3278C116.001 97.8718 115.11 98.1438 114.054 98.1438C113.201 98.1438 112.433 97.9572 111.75 97.5838C111.078 97.1998 110.55 96.6612 110.166 95.9678C109.793 95.2745 109.606 94.4745 109.606 93.5678C109.606 92.6505 109.793 91.8452 110.166 91.1518C110.539 90.4585 111.062 89.9252 111.734 89.5518C112.406 89.1785 113.179 88.9918 114.054 88.9918C114.897 88.9918 115.649 89.1732 116.31 89.5358C116.982 89.8985 117.499 90.4158 117.862 91.0878C118.235 91.7492 118.422 92.5118 118.422 93.3758ZM116.102 92.7358C116.091 92.1598 115.883 91.7012 115.478 91.3598C115.073 91.0078 114.577 90.8318 113.99 90.8318C113.435 90.8318 112.966 91.0025 112.582 91.3438C112.209 91.6745 111.979 92.1385 111.894 92.7358H116.102Z" fill="white"/>
<path d="M122.297 86.1598V97.9998H120.057V86.1598H122.297Z" fill="white"/>
<path d="M123.934 93.5358C123.934 92.6398 124.11 91.8452 124.462 91.1518C124.825 90.4585 125.31 89.9252 125.918 89.5518C126.537 89.1785 127.225 88.9918 127.982 88.9918C128.644 88.9918 129.22 89.1252 129.71 89.3918C130.212 89.6585 130.612 89.9945 130.91 90.3998V89.1358H133.166V97.9998H130.91V96.7038C130.622 97.1198 130.222 97.4665 129.71 97.7438C129.209 98.0105 128.628 98.1438 127.966 98.1438C127.22 98.1438 126.537 97.9518 125.918 97.5678C125.31 97.1838 124.825 96.6452 124.462 95.9518C124.11 95.2478 123.934 94.4425 123.934 93.5358ZM130.91 93.5678C130.91 93.0238 130.804 92.5598 130.59 92.1758C130.377 91.7812 130.089 91.4825 129.726 91.2798C129.364 91.0665 128.974 90.9598 128.558 90.9598C128.142 90.9598 127.758 91.0612 127.406 91.2638C127.054 91.4665 126.766 91.7652 126.542 92.1598C126.329 92.5438 126.222 93.0025 126.222 93.5358C126.222 94.0692 126.329 94.5385 126.542 94.9438C126.766 95.3385 127.054 95.6425 127.406 95.8558C127.769 96.0692 128.153 96.1758 128.558 96.1758C128.974 96.1758 129.364 96.0745 129.726 95.8718C130.089 95.6585 130.377 95.3598 130.59 94.9758C130.804 94.5812 130.91 94.1118 130.91 93.5678Z" fill="white"/>
<path d="M143.834 89.1358L138.346 102.192H135.962L137.882 97.7758L134.33 89.1358H136.842L139.13 95.3278L141.45 89.1358H143.834Z" fill="white"/>
<path d="M152.726 101.152C151.691 100.149 150.886 98.8692 150.31 97.3118C149.745 95.7545 149.462 94.0852 149.462 92.3038C149.462 90.4798 149.761 88.7678 150.358 87.1678C150.955 85.5572 151.825 84.2398 152.966 83.2158H155.222V83.4238C154.049 84.5438 153.153 85.8878 152.534 87.4558C151.926 89.0238 151.622 90.6398 151.622 92.3038C151.622 93.9252 151.91 95.4932 152.486 97.0078C153.073 98.5118 153.905 99.8185 154.982 100.928V101.152H152.726Z" fill="white"/>
<path d="M163.516 86.8318V88.6398H158.86V91.5038H162.428V93.2798H158.86V97.9998H156.62V86.8318H163.516Z" fill="white"/>
<path d="M167.344 86.8318V97.9998H165.104V86.8318H167.344Z" fill="white"/>
<path d="M173.461 86.8318C174.634 86.8318 175.664 87.0612 176.549 87.5198C177.445 87.9785 178.133 88.6345 178.613 89.4878C179.104 90.3305 179.349 91.3118 179.349 92.4318C179.349 93.5518 179.104 94.5332 178.613 95.3758C178.133 96.2078 177.445 96.8532 176.549 97.3118C175.664 97.7705 174.634 97.9998 173.461 97.9998H169.557V86.8318H173.461ZM173.381 96.0958C174.554 96.0958 175.461 95.7758 176.101 95.1358C176.741 94.4958 177.061 93.5945 177.061 92.4318C177.061 91.2692 176.741 90.3625 176.101 89.7118C175.461 89.0505 174.554 88.7198 173.381 88.7198H171.797V96.0958H173.381Z" fill="white"/>
<path d="M180.45 101.152V100.928C181.527 99.8185 182.354 98.5118 182.93 97.0078C183.517 95.4932 183.81 93.9252 183.81 92.3038C183.81 90.6398 183.501 89.0238 182.882 87.4558C182.274 85.8878 181.383 84.5438 180.21 83.4238V83.2158H182.466C183.607 84.2398 184.477 85.5572 185.074 87.1678C185.671 88.7678 185.97 90.4798 185.97 92.3038C185.97 94.0852 185.682 95.7545 185.106 97.3118C184.541 98.8692 183.741 100.149 182.706 101.152H180.45Z" fill="white"/>
<path d="M13.5601 175.4C13.5601 174.301 13.8054 173.32 14.2961 172.456C14.7974 171.581 15.4747 170.904 16.3281 170.424C17.1921 169.933 18.1574 169.688 19.2241 169.688C20.4721 169.688 21.5654 170.008 22.5041 170.648C23.4427 171.288 24.0987 172.173 24.4721 173.304H21.8961C21.6401 172.77 21.2774 172.37 20.8081 172.104C20.3494 171.837 19.8161 171.704 19.2081 171.704C18.5574 171.704 17.9761 171.858 17.4641 172.168C16.9627 172.466 16.5681 172.893 16.2801 173.448C16.0027 174.002 15.8641 174.653 15.8641 175.4C15.8641 176.136 16.0027 176.786 16.2801 177.352C16.5681 177.906 16.9627 178.338 17.4641 178.648C17.9761 178.946 18.5574 179.096 19.2081 179.096C19.8161 179.096 20.3494 178.962 20.8081 178.696C21.2774 178.418 21.6401 178.013 21.8961 177.48H24.4721C24.0987 178.621 23.4427 179.512 22.5041 180.152C21.5761 180.781 20.4827 181.096 19.2241 181.096C18.1574 181.096 17.1921 180.856 16.3281 180.376C15.4747 179.885 14.7974 179.208 14.2961 178.344C13.8054 177.48 13.5601 176.498 13.5601 175.4Z" fill="white"/>
<path d="M34.7533 172.136V181H32.4973V179.88C32.2093 180.264 31.8306 180.568 31.3613 180.792C30.9026 181.005 30.4013 181.112 29.8573 181.112C29.164 181.112 28.5506 180.968 28.0173 180.68C27.484 180.381 27.0626 179.949 26.7533 179.384C26.4546 178.808 26.3053 178.125 26.3053 177.336V172.136H28.5453V177.016C28.5453 177.72 28.7213 178.264 29.0733 178.648C29.4253 179.021 29.9053 179.208 30.5133 179.208C31.132 179.208 31.6173 179.021 31.9693 178.648C32.3213 178.264 32.4973 177.72 32.4973 177.016V172.136H34.7533Z" fill="white"/>
<path d="M47.9714 172.008C49.0594 172.008 49.9341 172.344 50.5954 173.016C51.2674 173.677 51.6034 174.605 51.6034 175.8V181H49.3634V176.104C49.3634 175.41 49.1874 174.882 48.8354 174.52C48.4834 174.146 48.0034 173.96 47.3954 173.96C46.7874 173.96 46.3021 174.146 45.9394 174.52C45.5874 174.882 45.4114 175.41 45.4114 176.104V181H43.1714V176.104C43.1714 175.41 42.9954 174.882 42.6434 174.52C42.2914 174.146 41.8114 173.96 41.2034 173.96C40.5848 173.96 40.0941 174.146 39.7314 174.52C39.3794 174.882 39.2034 175.41 39.2034 176.104V181H36.9634V172.136H39.2034V173.208C39.4914 172.834 39.8594 172.541 40.3074 172.328C40.7661 172.114 41.2674 172.008 41.8114 172.008C42.5048 172.008 43.1234 172.157 43.6674 172.456C44.2114 172.744 44.6328 173.16 44.9314 173.704C45.2194 173.192 45.6354 172.781 46.1794 172.472C46.7341 172.162 47.3314 172.008 47.9714 172.008Z" fill="white"/>
<path d="M62.0971 172.136V181H59.8411V179.88C59.5531 180.264 59.1744 180.568 58.7051 180.792C58.2464 181.005 57.7451 181.112 57.2011 181.112C56.5077 181.112 55.8944 180.968 55.3611 180.68C54.8277 180.381 54.4064 179.949 54.0971 179.384C53.7984 178.808 53.6491 178.125 53.6491 177.336V172.136H55.8891V177.016C55.8891 177.72 56.0651 178.264 56.4171 178.648C56.7691 179.021 57.2491 179.208 57.8571 179.208C58.4757 179.208 58.9611 179.021 59.3131 178.648C59.6651 178.264 59.8411 177.72 59.8411 177.016V172.136H62.0971Z" fill="white"/>
<path d="M66.5472 169.16V181H64.3072V169.16H66.5472Z" fill="white"/>
<path d="M68.1843 176.536C68.1843 175.64 68.3603 174.845 68.7123 174.152C69.075 173.458 69.5603 172.925 70.1683 172.552C70.787 172.178 71.475 171.992 72.2323 171.992C72.8936 171.992 73.4696 172.125 73.9603 172.392C74.4616 172.658 74.8616 172.994 75.1603 173.4V172.136H77.4163V181H75.1603V179.704C74.8723 180.12 74.4723 180.466 73.9603 180.744C73.459 181.01 72.8776 181.144 72.2163 181.144C71.4696 181.144 70.787 180.952 70.1683 180.568C69.5603 180.184 69.075 179.645 68.7123 178.952C68.3603 178.248 68.1843 177.442 68.1843 176.536ZM75.1603 176.568C75.1603 176.024 75.0536 175.56 74.8403 175.176C74.627 174.781 74.339 174.482 73.9763 174.28C73.6136 174.066 73.2243 173.96 72.8083 173.96C72.3923 173.96 72.0083 174.061 71.6563 174.264C71.3043 174.466 71.0163 174.765 70.7923 175.16C70.579 175.544 70.4723 176.002 70.4723 176.536C70.4723 177.069 70.579 177.538 70.7923 177.944C71.0163 178.338 71.3043 178.642 71.6563 178.856C72.019 179.069 72.403 179.176 72.8083 179.176C73.2243 179.176 73.6136 179.074 73.9763 178.872C74.339 178.658 74.627 178.36 74.8403 177.976C75.0536 177.581 75.1603 177.112 75.1603 176.568Z" fill="white"/>
<path d="M82.2121 173.976V178.264C82.2121 178.562 82.2814 178.781 82.4201 178.92C82.5694 179.048 82.8147 179.112 83.1561 179.112H84.1961V181H82.7881C80.9001 181 79.9561 180.082 79.9561 178.248V173.976H78.9001V172.136H79.9561V169.944H82.2121V172.136H84.1961V173.976H82.2121Z" fill="white"/>
<path d="M86.9432 171.08C86.5485 171.08 86.2179 170.957 85.9512 170.712C85.6952 170.456 85.5672 170.141 85.5672 169.768C85.5672 169.394 85.6952 169.085 85.9512 168.84C86.2179 168.584 86.5485 168.456 86.9432 168.456C87.3379 168.456 87.6632 168.584 87.9192 168.84C88.1859 169.085 88.3192 169.394 88.3192 169.768C88.3192 170.141 88.1859 170.456 87.9192 170.712C87.6632 170.957 87.3379 171.08 86.9432 171.08ZM88.0472 172.136V181H85.8072V172.136H88.0472Z" fill="white"/>
<path d="M93.9563 178.936L96.1963 172.136H98.5803L95.3003 181H92.5803L89.3163 172.136H91.7163L93.9563 178.936Z" fill="white"/>
<path d="M108.078 176.376C108.078 176.696 108.057 176.984 108.014 177.24H101.534C101.588 177.88 101.812 178.381 102.206 178.744C102.601 179.106 103.086 179.288 103.662 179.288C104.494 179.288 105.086 178.93 105.438 178.216H107.854C107.598 179.069 107.108 179.773 106.382 180.328C105.657 180.872 104.766 181.144 103.71 181.144C102.857 181.144 102.089 180.957 101.406 180.584C100.734 180.2 100.206 179.661 99.8224 178.968C99.4491 178.274 99.2624 177.474 99.2624 176.568C99.2624 175.65 99.4491 174.845 99.8224 174.152C100.196 173.458 100.718 172.925 101.39 172.552C102.062 172.178 102.836 171.992 103.71 171.992C104.553 171.992 105.305 172.173 105.966 172.536C106.638 172.898 107.156 173.416 107.518 174.088C107.892 174.749 108.078 175.512 108.078 176.376ZM105.758 175.736C105.748 175.16 105.54 174.701 105.134 174.36C104.729 174.008 104.233 173.832 103.646 173.832C103.092 173.832 102.622 174.002 102.238 174.344C101.865 174.674 101.636 175.138 101.55 175.736H105.758Z" fill="white"/>
<path d="M115.766 179.224H119.446V181H113.526V169.832H115.766V179.224Z" fill="white"/>
<path d="M120.294 176.536C120.294 175.64 120.47 174.845 120.822 174.152C121.184 173.458 121.67 172.925 122.278 172.552C122.896 172.178 123.584 171.992 124.342 171.992C125.003 171.992 125.579 172.125 126.07 172.392C126.571 172.658 126.971 172.994 127.27 173.4V172.136H129.526V181H127.27V179.704C126.982 180.12 126.582 180.466 126.07 180.744C125.568 181.01 124.987 181.144 124.326 181.144C123.579 181.144 122.896 180.952 122.278 180.568C121.67 180.184 121.184 179.645 120.822 178.952C120.47 178.248 120.294 177.442 120.294 176.536ZM127.27 176.568C127.27 176.024 127.163 175.56 126.95 175.176C126.736 174.781 126.448 174.482 126.086 174.28C125.723 174.066 125.334 173.96 124.918 173.96C124.502 173.96 124.118 174.061 123.766 174.264C123.414 174.466 123.126 174.765 122.902 175.16C122.688 175.544 122.582 176.002 122.582 176.536C122.582 177.069 122.688 177.538 122.902 177.944C123.126 178.338 123.414 178.642 123.766 178.856C124.128 179.069 124.512 179.176 124.918 179.176C125.334 179.176 125.723 179.074 126.086 178.872C126.448 178.658 126.736 178.36 126.95 177.976C127.163 177.581 127.27 177.112 127.27 176.568Z" fill="white"/>
<path d="M140.193 172.136L134.705 185.192H132.321L134.241 180.776L130.689 172.136H133.201L135.489 178.328L137.809 172.136H140.193Z" fill="white"/>
<path d="M145.337 181.144C144.484 181.144 143.716 180.957 143.033 180.584C142.35 180.2 141.812 179.661 141.417 178.968C141.033 178.274 140.841 177.474 140.841 176.568C140.841 175.661 141.038 174.861 141.433 174.168C141.838 173.474 142.388 172.941 143.081 172.568C143.774 172.184 144.548 171.992 145.401 171.992C146.254 171.992 147.028 172.184 147.721 172.568C148.414 172.941 148.958 173.474 149.353 174.168C149.758 174.861 149.961 175.661 149.961 176.568C149.961 177.474 149.753 178.274 149.337 178.968C148.932 179.661 148.377 180.2 147.673 180.584C146.98 180.957 146.201 181.144 145.337 181.144ZM145.337 179.192C145.742 179.192 146.121 179.096 146.473 178.904C146.836 178.701 147.124 178.402 147.337 178.008C147.55 177.613 147.657 177.133 147.657 176.568C147.657 175.725 147.433 175.08 146.985 174.632C146.548 174.173 146.009 173.944 145.369 173.944C144.729 173.944 144.19 174.173 143.753 174.632C143.326 175.08 143.113 175.725 143.113 176.568C143.113 177.41 143.321 178.061 143.737 178.52C144.164 178.968 144.697 179.192 145.337 179.192Z" fill="white"/>
<path d="M159.972 172.136V181H157.716V179.88C157.428 180.264 157.049 180.568 156.58 180.792C156.121 181.005 155.62 181.112 155.076 181.112C154.383 181.112 153.769 180.968 153.236 180.68C152.703 180.381 152.281 179.949 151.972 179.384C151.673 178.808 151.524 178.125 151.524 177.336V172.136H153.764V177.016C153.764 177.72 153.94 178.264 154.292 178.648C154.644 179.021 155.124 179.208 155.732 179.208C156.351 179.208 156.836 179.021 157.188 178.648C157.54 178.264 157.716 177.72 157.716 177.016V172.136H159.972Z" fill="white"/>
<path d="M164.79 173.976V178.264C164.79 178.562 164.86 178.781 164.998 178.92C165.148 179.048 165.393 179.112 165.734 179.112H166.774V181H165.366C163.478 181 162.534 180.082 162.534 178.248V173.976H161.478V172.136H162.534V169.944H164.79V172.136H166.774V173.976H164.79Z" fill="white"/>
<path d="M176.054 181.112C175.275 181.112 174.571 180.978 173.942 180.712C173.323 180.445 172.832 180.061 172.47 179.56C172.107 179.058 171.92 178.466 171.91 177.784H174.31C174.342 178.242 174.502 178.605 174.79 178.872C175.088 179.138 175.494 179.272 176.006 179.272C176.528 179.272 176.939 179.149 177.238 178.904C177.536 178.648 177.686 178.317 177.686 177.912C177.686 177.581 177.584 177.309 177.382 177.096C177.179 176.882 176.923 176.717 176.614 176.6C176.315 176.472 175.899 176.333 175.366 176.184C174.64 175.97 174.048 175.762 173.59 175.56C173.142 175.346 172.752 175.032 172.422 174.616C172.102 174.189 171.942 173.624 171.942 172.92C171.942 172.258 172.107 171.682 172.438 171.192C172.768 170.701 173.232 170.328 173.83 170.072C174.427 169.805 175.11 169.672 175.878 169.672C177.03 169.672 177.963 169.954 178.678 170.52C179.403 171.074 179.803 171.853 179.878 172.856H177.414C177.392 172.472 177.227 172.157 176.918 171.912C176.619 171.656 176.219 171.528 175.718 171.528C175.28 171.528 174.928 171.64 174.662 171.864C174.406 172.088 174.278 172.413 174.278 172.84C174.278 173.138 174.374 173.389 174.566 173.592C174.768 173.784 175.014 173.944 175.302 174.072C175.6 174.189 176.016 174.328 176.55 174.488C177.275 174.701 177.867 174.914 178.326 175.128C178.784 175.341 179.179 175.661 179.51 176.088C179.84 176.514 180.006 177.074 180.006 177.768C180.006 178.365 179.851 178.92 179.542 179.432C179.232 179.944 178.779 180.354 178.182 180.664C177.584 180.962 176.875 181.112 176.054 181.112Z" fill="white"/>
<path d="M186.94 172.008C187.612 172.008 188.209 172.157 188.732 172.456C189.254 172.744 189.66 173.176 189.948 173.752C190.246 174.317 190.396 175 190.396 175.8V181H188.156V176.104C188.156 175.4 187.98 174.861 187.628 174.488C187.276 174.104 186.796 173.912 186.188 173.912C185.569 173.912 185.078 174.104 184.716 174.488C184.364 174.861 184.188 175.4 184.188 176.104V181H181.948V169.16H184.188V173.24C184.476 172.856 184.86 172.557 185.34 172.344C185.82 172.12 186.353 172.008 186.94 172.008Z" fill="white"/>
<path d="M193.662 171.08C193.267 171.08 192.937 170.957 192.67 170.712C192.414 170.456 192.286 170.141 192.286 169.768C192.286 169.394 192.414 169.085 192.67 168.84C192.937 168.584 193.267 168.456 193.662 168.456C194.057 168.456 194.382 168.584 194.638 168.84C194.905 169.085 195.038 169.394 195.038 169.768C195.038 170.141 194.905 170.456 194.638 170.712C194.382 170.957 194.057 171.08 193.662 171.08ZM194.766 172.136V181H192.526V172.136H194.766Z" fill="white"/>
<path d="M201.043 173.976H199.491V181H197.219V173.976H196.211V172.136H197.219V171.688C197.219 170.6 197.528 169.8 198.147 169.288C198.766 168.776 199.699 168.536 200.947 168.568V170.456C200.403 170.445 200.024 170.536 199.811 170.728C199.598 170.92 199.491 171.266 199.491 171.768V172.136H201.043V173.976Z" fill="white"/>
<path d="M205.103 173.976V178.264C205.103 178.562 205.172 178.781 205.311 178.92C205.46 179.048 205.705 179.112 206.047 179.112H207.087V181H205.679C203.791 181 202.847 180.082 202.847 178.248V173.976H201.791V172.136H202.847V169.944H205.103V172.136H207.087V173.976H205.103Z" fill="white"/>
<path d="M216.382 184.152C215.348 183.149 214.542 181.869 213.966 180.312C213.401 178.754 213.118 177.085 213.118 175.304C213.118 173.48 213.417 171.768 214.014 170.168C214.612 168.557 215.481 167.24 216.622 166.216H218.878V166.424C217.705 167.544 216.809 168.888 216.19 170.456C215.582 172.024 215.278 173.64 215.278 175.304C215.278 176.925 215.566 178.493 216.142 180.008C216.729 181.512 217.561 182.818 218.638 183.928V184.152H216.382Z" fill="white"/>
<path d="M219.732 175.4C219.732 174.301 219.977 173.32 220.468 172.456C220.969 171.581 221.647 170.904 222.5 170.424C223.364 169.933 224.329 169.688 225.396 169.688C226.644 169.688 227.737 170.008 228.676 170.648C229.615 171.288 230.271 172.173 230.644 173.304H228.068C227.812 172.77 227.449 172.37 226.98 172.104C226.521 171.837 225.988 171.704 225.38 171.704C224.729 171.704 224.148 171.858 223.636 172.168C223.135 172.466 222.74 172.893 222.452 173.448C222.175 174.002 222.036 174.653 222.036 175.4C222.036 176.136 222.175 176.786 222.452 177.352C222.74 177.906 223.135 178.338 223.636 178.648C224.148 178.946 224.729 179.096 225.38 179.096C225.988 179.096 226.521 178.962 226.98 178.696C227.449 178.418 227.812 178.013 228.068 177.48H230.644C230.271 178.621 229.615 179.512 228.676 180.152C227.748 180.781 226.655 181.096 225.396 181.096C224.329 181.096 223.364 180.856 222.5 180.376C221.647 179.885 220.969 179.208 220.468 178.344C219.977 177.48 219.732 176.498 219.732 175.4Z" fill="white"/>
<path d="M234.797 179.224H238.477V181H232.557V169.832H234.797V179.224Z" fill="white"/>
<path d="M243.757 181.112C242.978 181.112 242.274 180.978 241.645 180.712C241.026 180.445 240.536 180.061 240.173 179.56C239.81 179.058 239.624 178.466 239.613 177.784H242.013C242.045 178.242 242.205 178.605 242.493 178.872C242.792 179.138 243.197 179.272 243.709 179.272C244.232 179.272 244.642 179.149 244.941 178.904C245.24 178.648 245.389 178.317 245.389 177.912C245.389 177.581 245.288 177.309 245.085 177.096C244.882 176.882 244.626 176.717 244.317 176.6C244.018 176.472 243.602 176.333 243.069 176.184C242.344 175.97 241.752 175.762 241.293 175.56C240.845 175.346 240.456 175.032 240.125 174.616C239.805 174.189 239.645 173.624 239.645 172.92C239.645 172.258 239.81 171.682 240.141 171.192C240.472 170.701 240.936 170.328 241.533 170.072C242.13 169.805 242.813 169.672 243.581 169.672C244.733 169.672 245.666 169.954 246.381 170.52C247.106 171.074 247.506 171.853 247.581 172.856H245.117C245.096 172.472 244.93 172.157 244.621 171.912C244.322 171.656 243.922 171.528 243.421 171.528C242.984 171.528 242.632 171.64 242.365 171.864C242.109 172.088 241.981 172.413 241.981 172.84C241.981 173.138 242.077 173.389 242.269 173.592C242.472 173.784 242.717 173.944 243.005 174.072C243.304 174.189 243.72 174.328 244.253 174.488C244.978 174.701 245.57 174.914 246.029 175.128C246.488 175.341 246.882 175.661 247.213 176.088C247.544 176.514 247.709 177.074 247.709 177.768C247.709 178.365 247.554 178.92 247.245 179.432C246.936 179.944 246.482 180.354 245.885 180.664C245.288 180.962 244.578 181.112 243.757 181.112Z" fill="white"/>
<path d="M249.075 184.152V183.928C250.152 182.818 250.979 181.512 251.555 180.008C252.142 178.493 252.435 176.925 252.435 175.304C252.435 173.64 252.126 172.024 251.507 170.456C250.899 168.888 250.008 167.544 248.835 166.424V166.216H251.091C252.232 167.24 253.102 168.557 253.699 170.168C254.296 171.768 254.595 173.48 254.595 175.304C254.595 177.085 254.307 178.754 253.731 180.312C253.166 181.869 252.366 183.149 251.331 184.152H249.075Z" fill="white"/>
</svg>
