<svg width="1024" height="374" viewBox="0 0 1024 374" fill="none" xmlns="http://www.w3.org/2000/svg">
<circle cx="934.5" cy="89.5" r="89.5" fill="url(#paint0_radial_785_276)" fill-opacity="0.8"/>
<mask id="mask0_785_276" style="mask-type:alpha" maskUnits="userSpaceOnUse" x="-45" y="35" width="778" height="330">
<mask id="mask1_785_276" style="mask-type:alpha" maskUnits="userSpaceOnUse" x="-45" y="35" width="778" height="330">
<rect x="321.657" y="364.181" width="1.09198" height="328.687" transform="rotate(180 321.657 364.181)" fill="url(#paint1_linear_785_276)"/>
<rect x="142.572" y="364.181" width="1.09198" height="328.687" transform="rotate(180 142.572 364.181)" fill="url(#paint2_linear_785_276)"/>
<rect x="500.743" y="364.181" width="1.09198" height="328.687" transform="rotate(180 500.743 364.181)" fill="url(#paint3_linear_785_276)"/>
<rect x="-44.1562" y="133.772" width="1.09195" height="776.4" transform="rotate(-90 -44.1562 133.772)" fill="url(#paint4_linear_785_276)"/>
<rect x="-44.1562" y="357.629" width="1.09195" height="776.4" transform="rotate(-90 -44.1562 357.629)" fill="url(#paint5_linear_785_276)"/>
<rect x="53.0303" y="364.181" width="1.09198" height="328.687" transform="rotate(180 53.0303 364.181)" fill="url(#paint6_linear_785_276)"/>
<rect x="411.201" y="364.181" width="1.09198" height="328.687" transform="rotate(180 411.201 364.181)" fill="url(#paint7_linear_785_276)"/>
<rect x="232.115" y="364.181" width="1.09198" height="328.687" transform="rotate(180 232.115 364.181)" fill="url(#paint8_linear_785_276)"/>
<rect x="590.285" y="364.181" width="1.09198" height="328.687" transform="rotate(180 590.285 364.181)" fill="url(#paint9_linear_785_276)"/>
<rect x="-44.1562" y="223.315" width="1.09195" height="776.4" transform="rotate(-90 -44.1562 223.315)" fill="url(#paint10_linear_785_276)"/>
<rect x="8.25879" y="364.181" width="1.09198" height="328.687" transform="rotate(180 8.25879 364.181)" fill="url(#paint11_linear_785_276)"/>
<rect x="366.43" y="364.181" width="1.09198" height="328.687" transform="rotate(180 366.43 364.181)" fill="url(#paint12_linear_785_276)"/>
<rect x="187.344" y="364.181" width="1.09198" height="328.687" transform="rotate(180 187.344 364.181)" fill="url(#paint13_linear_785_276)"/>
<rect x="545.515" y="364.181" width="1.09198" height="328.687" transform="rotate(180 545.515 364.181)" fill="url(#paint14_linear_785_276)"/>
<rect x="-44.1562" y="178.544" width="1.09195" height="776.4" transform="rotate(-90 -44.1562 178.544)" fill="url(#paint15_linear_785_276)"/>
<rect x="97.8018" y="364.181" width="1.09198" height="328.687" transform="rotate(180 97.8018 364.181)" fill="url(#paint16_linear_785_276)"/>
<rect x="455.972" y="364.181" width="1.09198" height="328.687" transform="rotate(180 455.972 364.181)" fill="url(#paint17_linear_785_276)"/>
<rect x="-44.1562" y="89.0012" width="1.09195" height="776.4" transform="rotate(-90 -44.1562 89.0012)" fill="url(#paint18_linear_785_276)"/>
<rect x="679.828" y="364.181" width="1.09198" height="328.687" transform="rotate(180 679.828 364.181)" fill="url(#paint19_linear_785_276)"/>
<rect x="-44.1562" y="312.857" width="1.09195" height="776.4" transform="rotate(-90 -44.1562 312.857)" fill="url(#paint20_linear_785_276)"/>
<rect x="276.886" y="364.181" width="1.09198" height="328.687" transform="rotate(180 276.886 364.181)" fill="url(#paint21_linear_785_276)"/>
<rect x="635.057" y="364.181" width="1.09198" height="328.687" transform="rotate(180 635.057 364.181)" fill="url(#paint22_linear_785_276)"/>
<rect x="-44.1562" y="268.086" width="1.09195" height="776.4" transform="rotate(-90 -44.1562 268.086)" fill="url(#paint23_linear_785_276)"/>
</mask>
<g mask="url(#mask1_785_276)">
<rect x="-57.2607" y="27.8496" width="803.699" height="345.067" fill="url(#paint24_radial_785_276)"/>
</g>
</mask>
<g mask="url(#mask0_785_276)">
<rect x="-53.9834" y="32.218" width="802.607" height="336.331" fill="url(#paint25_radial_785_276)"/>
</g>
<path d="M934.086 88.8911C919.949 99.1021 910.744 103.643 894.038 108.648C876.148 114.008 863.472 106.163 846.514 113.988C819.617 126.399 828.685 161.654 802.728 175.929C786.951 184.606 775.063 160.42 757.874 165.784C739.909 171.39 731.839 181.508 713.02 181.269C693.964 181.027 687.224 171.123 668.166 171.123C649.109 171.123 639.771 194.622 623.313 204.23C604.215 215.378 600.768 235.622 578.993 239.472C561.308 242.599 551.874 217.202 534.139 214.375C516.762 211.606 505.796 231.136 489.285 225.055C468.013 217.221 466.946 164.148 444.431 161.512C425.957 159.349 416.961 197.614 399.577 204.23C381.916 210.951 370.615 212.16 354.723 222.385C333.253 236.199 333.409 259.372 310.403 270.443C294.335 278.175 281.938 271.959 265.549 278.986C244.837 287.868 242.252 308.724 220.695 315.297C203.94 320.405 202.006 319.568 175.841 315.297C149.677 311.025 148.447 326.223 130.988 333.452C113.202 340.815 104.849 352.675 85.5997 352.675C69.0464 352.675 48.2214 352.675 48.2214 352.675H-136" stroke="url(#paint26_linear_785_276)"/>
<path d="M175.841 315.297C149.677 311.025 148.447 326.223 130.988 333.452C113.202 340.815 104.849 352.675 85.5997 352.675H48.2214H-136V373.5H1024.33V88.8912C1024.33 88.8912 997.968 76.7714 980.008 76.6098C961.445 76.4428 934.086 88.8912 934.086 88.8912C919.949 99.1023 910.744 103.643 894.038 108.648C876.148 114.008 863.472 106.163 846.514 113.988C819.617 126.4 828.685 161.654 802.728 175.929C786.951 184.606 775.063 160.42 757.874 165.784C739.909 171.39 731.839 181.508 713.02 181.269C693.965 181.027 687.224 171.123 668.167 171.123C649.109 171.123 639.771 194.622 623.313 204.23C604.215 215.378 600.768 235.622 578.993 239.472C561.308 242.599 551.874 217.202 534.139 214.375C516.762 211.606 505.797 231.136 489.285 225.055C468.013 217.221 466.946 164.148 444.431 161.512C425.957 159.349 416.961 197.614 399.577 204.23C381.916 210.951 370.615 212.16 354.723 222.385C333.253 236.2 333.409 259.373 310.403 270.443C294.335 278.175 281.938 271.959 265.549 278.986C244.837 287.868 242.253 308.725 220.695 315.297C203.94 320.405 202.006 319.568 175.841 315.297Z" fill="#0D0D0F"/>
<circle cx="933" cy="88.9998" r="3" fill="#2EC8EE"/>
<defs>
<radialGradient id="paint0_radial_785_276" cx="0" cy="0" r="1" gradientUnits="userSpaceOnUse" gradientTransform="translate(934.5 89.5) rotate(90) scale(89.5)">
<stop stop-color="#2EC8EE" stop-opacity="0.2"/>
<stop offset="1" stop-color="#2C5A71" stop-opacity="0"/>
</radialGradient>
<linearGradient id="paint1_linear_785_276" x1="322.368" y1="810.802" x2="321.598" y2="810.801" gradientUnits="userSpaceOnUse">
<stop/>
<stop offset="0.984375" stop-color="white"/>
<stop offset="0.984375" stop-opacity="0"/>
</linearGradient>
<linearGradient id="paint2_linear_785_276" x1="143.283" y1="810.802" x2="142.513" y2="810.801" gradientUnits="userSpaceOnUse">
<stop/>
<stop offset="0.984375" stop-color="white"/>
<stop offset="0.984375" stop-opacity="0"/>
</linearGradient>
<linearGradient id="paint3_linear_785_276" x1="501.453" y1="810.802" x2="500.684" y2="810.801" gradientUnits="userSpaceOnUse">
<stop/>
<stop offset="0.984375" stop-color="white"/>
<stop offset="0.984375" stop-opacity="0"/>
</linearGradient>
<linearGradient id="paint4_linear_785_276" x1="-43.4459" y1="1188.75" x2="-44.2151" y2="1188.75" gradientUnits="userSpaceOnUse">
<stop/>
<stop offset="0.984375" stop-color="white"/>
<stop offset="0.984375" stop-opacity="0"/>
</linearGradient>
<linearGradient id="paint5_linear_785_276" x1="-43.4459" y1="1412.6" x2="-44.2151" y2="1412.6" gradientUnits="userSpaceOnUse">
<stop/>
<stop offset="0.984375" stop-color="white"/>
<stop offset="0.984375" stop-opacity="0"/>
</linearGradient>
<linearGradient id="paint6_linear_785_276" x1="53.7406" y1="810.802" x2="52.9714" y2="810.801" gradientUnits="userSpaceOnUse">
<stop/>
<stop offset="0.984375" stop-color="white"/>
<stop offset="0.984375" stop-opacity="0"/>
</linearGradient>
<linearGradient id="paint7_linear_785_276" x1="411.911" y1="810.802" x2="411.142" y2="810.801" gradientUnits="userSpaceOnUse">
<stop/>
<stop offset="0.984375" stop-color="white"/>
<stop offset="0.984375" stop-opacity="0"/>
</linearGradient>
<linearGradient id="paint8_linear_785_276" x1="232.826" y1="810.802" x2="232.056" y2="810.801" gradientUnits="userSpaceOnUse">
<stop/>
<stop offset="0.984375" stop-color="white"/>
<stop offset="0.984375" stop-opacity="0"/>
</linearGradient>
<linearGradient id="paint9_linear_785_276" x1="590.995" y1="810.802" x2="590.226" y2="810.801" gradientUnits="userSpaceOnUse">
<stop/>
<stop offset="0.984375" stop-color="white"/>
<stop offset="0.984375" stop-opacity="0"/>
</linearGradient>
<linearGradient id="paint10_linear_785_276" x1="-43.4459" y1="1278.29" x2="-44.2151" y2="1278.29" gradientUnits="userSpaceOnUse">
<stop/>
<stop offset="0.984375" stop-color="white"/>
<stop offset="0.984375" stop-opacity="0"/>
</linearGradient>
<linearGradient id="paint11_linear_785_276" x1="8.96912" y1="810.802" x2="8.19995" y2="810.801" gradientUnits="userSpaceOnUse">
<stop/>
<stop offset="0.984375" stop-color="white"/>
<stop offset="0.984375" stop-opacity="0"/>
</linearGradient>
<linearGradient id="paint12_linear_785_276" x1="367.14" y1="810.802" x2="366.371" y2="810.801" gradientUnits="userSpaceOnUse">
<stop/>
<stop offset="0.984375" stop-color="white"/>
<stop offset="0.984375" stop-opacity="0"/>
</linearGradient>
<linearGradient id="paint13_linear_785_276" x1="188.054" y1="810.802" x2="187.285" y2="810.801" gradientUnits="userSpaceOnUse">
<stop/>
<stop offset="0.984375" stop-color="white"/>
<stop offset="0.984375" stop-opacity="0"/>
</linearGradient>
<linearGradient id="paint14_linear_785_276" x1="546.225" y1="810.802" x2="545.456" y2="810.801" gradientUnits="userSpaceOnUse">
<stop/>
<stop offset="0.984375" stop-color="white"/>
<stop offset="0.984375" stop-opacity="0"/>
</linearGradient>
<linearGradient id="paint15_linear_785_276" x1="-43.4459" y1="1233.52" x2="-44.2151" y2="1233.52" gradientUnits="userSpaceOnUse">
<stop/>
<stop offset="0.984375" stop-color="white"/>
<stop offset="0.984375" stop-opacity="0"/>
</linearGradient>
<linearGradient id="paint16_linear_785_276" x1="98.5121" y1="810.802" x2="97.7429" y2="810.801" gradientUnits="userSpaceOnUse">
<stop/>
<stop offset="0.984375" stop-color="white"/>
<stop offset="0.984375" stop-opacity="0"/>
</linearGradient>
<linearGradient id="paint17_linear_785_276" x1="456.682" y1="810.802" x2="455.913" y2="810.801" gradientUnits="userSpaceOnUse">
<stop/>
<stop offset="0.984375" stop-color="white"/>
<stop offset="0.984375" stop-opacity="0"/>
</linearGradient>
<linearGradient id="paint18_linear_785_276" x1="-43.4459" y1="1143.98" x2="-44.2151" y2="1143.98" gradientUnits="userSpaceOnUse">
<stop/>
<stop offset="0.984375" stop-color="white"/>
<stop offset="0.984375" stop-opacity="0"/>
</linearGradient>
<linearGradient id="paint19_linear_785_276" x1="680.538" y1="810.802" x2="679.769" y2="810.801" gradientUnits="userSpaceOnUse">
<stop/>
<stop offset="0.984375" stop-color="white"/>
<stop offset="0.984375" stop-opacity="0"/>
</linearGradient>
<linearGradient id="paint20_linear_785_276" x1="-43.4459" y1="1367.83" x2="-44.2151" y2="1367.83" gradientUnits="userSpaceOnUse">
<stop/>
<stop offset="0.984375" stop-color="white"/>
<stop offset="0.984375" stop-opacity="0"/>
</linearGradient>
<linearGradient id="paint21_linear_785_276" x1="277.596" y1="810.802" x2="276.827" y2="810.801" gradientUnits="userSpaceOnUse">
<stop/>
<stop offset="0.984375" stop-color="white"/>
<stop offset="0.984375" stop-opacity="0"/>
</linearGradient>
<linearGradient id="paint22_linear_785_276" x1="635.767" y1="810.802" x2="634.998" y2="810.801" gradientUnits="userSpaceOnUse">
<stop/>
<stop offset="0.984375" stop-color="white"/>
<stop offset="0.984375" stop-opacity="0"/>
</linearGradient>
<linearGradient id="paint23_linear_785_276" x1="-43.4459" y1="1323.06" x2="-44.2151" y2="1323.06" gradientUnits="userSpaceOnUse">
<stop/>
<stop offset="0.984375" stop-color="white"/>
<stop offset="0.984375" stop-opacity="0"/>
</linearGradient>
<radialGradient id="paint24_radial_785_276" cx="0" cy="0" r="1" gradientUnits="userSpaceOnUse" gradientTransform="translate(-17.4033 426.423) rotate(-30.5323) scale(808.202 1882.39)">
<stop stop-color="#1B1B1E"/>
<stop offset="1" stop-color="#141417" stop-opacity="0"/>
</radialGradient>
<radialGradient id="paint25_radial_785_276" cx="0" cy="0" r="1" gradientUnits="userSpaceOnUse" gradientTransform="translate(53.5769 368.549) rotate(-90) scale(336.259 802.436)">
<stop stop-color="#1B1B1E"/>
<stop offset="1" stop-color="#141417" stop-opacity="0"/>
</radialGradient>
<linearGradient id="paint26_linear_785_276" x1="170.502" y1="412.48" x2="1061.71" y2="50.9789" gradientUnits="userSpaceOnUse">
<stop stop-color="#141417"/>
<stop offset="1" stop-color="#2EC8EE"/>
</linearGradient>
</defs>
</svg>
