<svg width="929" height="393" viewBox="0 0 929 393" fill="none" xmlns="http://www.w3.org/2000/svg">
<mask id="mask0_775_204" style="mask-type:alpha" maskUnits="userSpaceOnUse" x="0" y="0" width="929" height="393">
<mask id="mask1_775_204" style="mask-type:alpha" maskUnits="userSpaceOnUse" x="0" y="0" width="929" height="393">
<rect width="1.30565" height="393" transform="matrix(-1 8.74228e-08 8.74228e-08 1 9.13867 0)" fill="url(#paint0_linear_775_204)"/>
<rect width="1.30565" height="393" transform="matrix(-1 8.74228e-08 8.74228e-08 1 437.392 0)" fill="url(#paint1_linear_775_204)"/>
<rect width="1.30565" height="393" transform="matrix(-1 8.74228e-08 8.74228e-08 1 223.266 0)" fill="url(#paint2_linear_775_204)"/>
<rect width="1.30565" height="393" transform="matrix(-1 8.74228e-08 8.74228e-08 1 651.519 0)" fill="url(#paint3_linear_775_204)"/>
<rect width="1.30561" height="928.316" transform="matrix(1.31134e-07 1 1 -1.31134e-07 0 275.492)" fill="url(#paint4_linear_775_204)"/>
<rect width="1.30561" height="928.316" transform="matrix(1.31134e-07 1 1 -1.31134e-07 0 7.8335)" fill="url(#paint5_linear_775_204)"/>
<rect width="1.30565" height="393" transform="matrix(-1 8.74228e-08 8.74228e-08 1 116.203 0)" fill="url(#paint6_linear_775_204)"/>
<rect width="1.30565" height="393" transform="matrix(-1 8.74228e-08 8.74228e-08 1 544.456 0)" fill="url(#paint7_linear_775_204)"/>
<rect width="1.30565" height="393" transform="matrix(-1 8.74228e-08 8.74228e-08 1 330.329 0)" fill="url(#paint8_linear_775_204)"/>
<rect width="1.30565" height="393" transform="matrix(-1 8.74228e-08 8.74228e-08 1 758.581 0)" fill="url(#paint9_linear_775_204)"/>
<rect width="1.30561" height="928.316" transform="matrix(1.31134e-07 1 1 -1.31134e-07 0 168.429)" fill="url(#paint10_linear_775_204)"/>
<rect width="1.30565" height="393" transform="matrix(-1 8.74228e-08 8.74228e-08 1 62.6709 0)" fill="url(#paint11_linear_775_204)"/>
<rect width="1.30565" height="393" transform="matrix(-1 8.74228e-08 8.74228e-08 1 490.924 0)" fill="url(#paint12_linear_775_204)"/>
<rect width="1.30565" height="393" transform="matrix(-1 8.74228e-08 8.74228e-08 1 276.797 0)" fill="url(#paint13_linear_775_204)"/>
<rect width="1.30565" height="393" transform="matrix(-1 8.74228e-08 8.74228e-08 1 705.051 0)" fill="url(#paint14_linear_775_204)"/>
<rect width="1.30561" height="928.316" transform="matrix(1.31134e-07 1 1 -1.31134e-07 0 221.96)" fill="url(#paint15_linear_775_204)"/>
<rect width="1.30565" height="393" transform="matrix(-1 8.74228e-08 8.74228e-08 1 169.734 0)" fill="url(#paint16_linear_775_204)"/>
<rect width="1.30565" height="393" transform="matrix(-1 8.74228e-08 8.74228e-08 1 597.986 0)" fill="url(#paint17_linear_775_204)"/>
<rect width="1.30561" height="928.316" transform="matrix(1.31134e-07 1 1 -1.31134e-07 0 329.023)" fill="url(#paint18_linear_775_204)"/>
<rect width="1.30565" height="393" transform="matrix(-1 8.74228e-08 8.74228e-08 1 865.645 0)" fill="url(#paint19_linear_775_204)"/>
<rect width="1.30561" height="928.316" transform="matrix(1.31134e-07 1 1 -1.31134e-07 0 61.3657)" fill="url(#paint20_linear_775_204)"/>
<rect width="1.30565" height="393" transform="matrix(-1 8.74228e-08 8.74228e-08 1 383.859 0)" fill="url(#paint21_linear_775_204)"/>
<rect width="1.30565" height="393" transform="matrix(-1 8.74228e-08 8.74228e-08 1 812.112 0)" fill="url(#paint22_linear_775_204)"/>
<rect width="1.30561" height="928.316" transform="matrix(1.31134e-07 1 1 -1.31134e-07 0 114.897)" fill="url(#paint23_linear_775_204)"/>
</mask>
<g mask="url(#mask1_775_204)">
<rect width="960.957" height="412.585" transform="matrix(1 -1.74846e-07 -1.74846e-07 -1 -15.668 402.14)" fill="url(#paint24_radial_775_204)"/>
</g>
</mask>
<g mask="url(#mask0_775_204)">
<rect width="959.651" height="402.14" transform="matrix(1 -1.74846e-07 -1.74846e-07 -1 -11.75 396.917)" fill="url(#paint25_radial_775_204)"/>
</g>
<defs>
<linearGradient id="paint0_linear_775_204" x1="0.849314" y1="534.01" x2="-0.0703562" y2="534.01" gradientUnits="userSpaceOnUse">
<stop/>
<stop offset="0.984375" stop-color="white"/>
<stop offset="0.984375" stop-opacity="0"/>
</linearGradient>
<linearGradient id="paint1_linear_775_204" x1="0.849314" y1="534.01" x2="-0.0703562" y2="534.01" gradientUnits="userSpaceOnUse">
<stop/>
<stop offset="0.984375" stop-color="white"/>
<stop offset="0.984375" stop-opacity="0"/>
</linearGradient>
<linearGradient id="paint2_linear_775_204" x1="0.849314" y1="534.01" x2="-0.0703562" y2="534.01" gradientUnits="userSpaceOnUse">
<stop/>
<stop offset="0.984375" stop-color="white"/>
<stop offset="0.984375" stop-opacity="0"/>
</linearGradient>
<linearGradient id="paint3_linear_775_204" x1="0.849314" y1="534.01" x2="-0.0703562" y2="534.01" gradientUnits="userSpaceOnUse">
<stop/>
<stop offset="0.984375" stop-color="white"/>
<stop offset="0.984375" stop-opacity="0"/>
</linearGradient>
<linearGradient id="paint4_linear_775_204" x1="0.849287" y1="1261.4" x2="-0.070354" y2="1261.4" gradientUnits="userSpaceOnUse">
<stop/>
<stop offset="0.984375" stop-color="white"/>
<stop offset="0.984375" stop-opacity="0"/>
</linearGradient>
<linearGradient id="paint5_linear_775_204" x1="0.849287" y1="1261.4" x2="-0.070354" y2="1261.4" gradientUnits="userSpaceOnUse">
<stop/>
<stop offset="0.984375" stop-color="white"/>
<stop offset="0.984375" stop-opacity="0"/>
</linearGradient>
<linearGradient id="paint6_linear_775_204" x1="0.849314" y1="534.01" x2="-0.0703562" y2="534.01" gradientUnits="userSpaceOnUse">
<stop/>
<stop offset="0.984375" stop-color="white"/>
<stop offset="0.984375" stop-opacity="0"/>
</linearGradient>
<linearGradient id="paint7_linear_775_204" x1="0.849314" y1="534.01" x2="-0.0703562" y2="534.01" gradientUnits="userSpaceOnUse">
<stop/>
<stop offset="0.984375" stop-color="white"/>
<stop offset="0.984375" stop-opacity="0"/>
</linearGradient>
<linearGradient id="paint8_linear_775_204" x1="0.849314" y1="534.01" x2="-0.0703562" y2="534.01" gradientUnits="userSpaceOnUse">
<stop/>
<stop offset="0.984375" stop-color="white"/>
<stop offset="0.984375" stop-opacity="0"/>
</linearGradient>
<linearGradient id="paint9_linear_775_204" x1="0.849314" y1="534.01" x2="-0.0703562" y2="534.01" gradientUnits="userSpaceOnUse">
<stop/>
<stop offset="0.984375" stop-color="white"/>
<stop offset="0.984375" stop-opacity="0"/>
</linearGradient>
<linearGradient id="paint10_linear_775_204" x1="0.849287" y1="1261.4" x2="-0.070354" y2="1261.4" gradientUnits="userSpaceOnUse">
<stop/>
<stop offset="0.984375" stop-color="white"/>
<stop offset="0.984375" stop-opacity="0"/>
</linearGradient>
<linearGradient id="paint11_linear_775_204" x1="0.849314" y1="534.01" x2="-0.0703562" y2="534.01" gradientUnits="userSpaceOnUse">
<stop/>
<stop offset="0.984375" stop-color="white"/>
<stop offset="0.984375" stop-opacity="0"/>
</linearGradient>
<linearGradient id="paint12_linear_775_204" x1="0.849314" y1="534.01" x2="-0.0703562" y2="534.01" gradientUnits="userSpaceOnUse">
<stop/>
<stop offset="0.984375" stop-color="white"/>
<stop offset="0.984375" stop-opacity="0"/>
</linearGradient>
<linearGradient id="paint13_linear_775_204" x1="0.849314" y1="534.01" x2="-0.0703562" y2="534.01" gradientUnits="userSpaceOnUse">
<stop/>
<stop offset="0.984375" stop-color="white"/>
<stop offset="0.984375" stop-opacity="0"/>
</linearGradient>
<linearGradient id="paint14_linear_775_204" x1="0.849314" y1="534.01" x2="-0.0703562" y2="534.01" gradientUnits="userSpaceOnUse">
<stop/>
<stop offset="0.984375" stop-color="white"/>
<stop offset="0.984375" stop-opacity="0"/>
</linearGradient>
<linearGradient id="paint15_linear_775_204" x1="0.849287" y1="1261.4" x2="-0.070354" y2="1261.4" gradientUnits="userSpaceOnUse">
<stop/>
<stop offset="0.984375" stop-color="white"/>
<stop offset="0.984375" stop-opacity="0"/>
</linearGradient>
<linearGradient id="paint16_linear_775_204" x1="0.849314" y1="534.01" x2="-0.0703562" y2="534.01" gradientUnits="userSpaceOnUse">
<stop/>
<stop offset="0.984375" stop-color="white"/>
<stop offset="0.984375" stop-opacity="0"/>
</linearGradient>
<linearGradient id="paint17_linear_775_204" x1="0.849314" y1="534.01" x2="-0.0703562" y2="534.01" gradientUnits="userSpaceOnUse">
<stop/>
<stop offset="0.984375" stop-color="white"/>
<stop offset="0.984375" stop-opacity="0"/>
</linearGradient>
<linearGradient id="paint18_linear_775_204" x1="0.849287" y1="1261.4" x2="-0.070354" y2="1261.4" gradientUnits="userSpaceOnUse">
<stop/>
<stop offset="0.984375" stop-color="white"/>
<stop offset="0.984375" stop-opacity="0"/>
</linearGradient>
<linearGradient id="paint19_linear_775_204" x1="0.849314" y1="534.01" x2="-0.0703562" y2="534.01" gradientUnits="userSpaceOnUse">
<stop/>
<stop offset="0.984375" stop-color="white"/>
<stop offset="0.984375" stop-opacity="0"/>
</linearGradient>
<linearGradient id="paint20_linear_775_204" x1="0.849287" y1="1261.4" x2="-0.070354" y2="1261.4" gradientUnits="userSpaceOnUse">
<stop/>
<stop offset="0.984375" stop-color="white"/>
<stop offset="0.984375" stop-opacity="0"/>
</linearGradient>
<linearGradient id="paint21_linear_775_204" x1="0.849314" y1="534.01" x2="-0.0703562" y2="534.01" gradientUnits="userSpaceOnUse">
<stop/>
<stop offset="0.984375" stop-color="white"/>
<stop offset="0.984375" stop-opacity="0"/>
</linearGradient>
<linearGradient id="paint22_linear_775_204" x1="0.849314" y1="534.01" x2="-0.0703562" y2="534.01" gradientUnits="userSpaceOnUse">
<stop/>
<stop offset="0.984375" stop-color="white"/>
<stop offset="0.984375" stop-opacity="0"/>
</linearGradient>
<linearGradient id="paint23_linear_775_204" x1="0.849287" y1="1261.4" x2="-0.070354" y2="1261.4" gradientUnits="userSpaceOnUse">
<stop/>
<stop offset="0.984375" stop-color="white"/>
<stop offset="0.984375" stop-opacity="0"/>
</linearGradient>
<radialGradient id="paint24_radial_775_204" cx="0" cy="0" r="1" gradientUnits="userSpaceOnUse" gradientTransform="translate(47.6562 476.562) rotate(-30.5323) scale(966.34 2250.72)">
<stop stop-color="#63C174"/>
<stop offset="1" stop-color="#141417" stop-opacity="0"/>
</radialGradient>
<radialGradient id="paint25_radial_775_204" cx="0" cy="0" r="1" gradientUnits="userSpaceOnUse" gradientTransform="translate(128.606 402.14) rotate(-90) scale(402.14 959.651)">
<stop stop-color="#63C174"/>
<stop offset="1" stop-color="#141417" stop-opacity="0"/>
</radialGradient>
</defs>
</svg>
