<svg width="280" height="84" viewBox="0 0 280 84" fill="none" xmlns="http://www.w3.org/2000/svg">
<path d="M206 24.5C206 38.031 195.031 49 181.5 49C167.969 49 157 38.031 157 24.5C157 10.969 167.969 0 181.5 0C195.031 0 206 10.969 206 24.5Z" fill="#2FBF71" fill-opacity="0.1"/>
<path fill-rule="evenodd" clip-rule="evenodd" d="M181.5 45.8987C193.376 45.8987 202.938 36.2815 202.938 24.5C202.938 12.7185 193.376 3.10127 181.5 3.10127C169.624 3.10127 160.062 12.7185 160.062 24.5C160.062 36.2815 169.624 45.8987 181.5 45.8987ZM181.5 49C195.031 49 206 38.031 206 24.5C206 10.969 195.031 0 181.5 0C167.969 0 157 10.969 157 24.5C157 38.031 167.969 49 181.5 49Z" fill="#2FBF71"/>
<path d="M57 24.5C57 38.031 46.031 49 32.5 49C18.969 49 8 38.031 8 24.5C8 10.969 18.969 0 32.5 0C46.031 0 57 10.969 57 24.5Z" fill="#2FBF71" fill-opacity="0.1"/>
<path fill-rule="evenodd" clip-rule="evenodd" d="M32.5 45.8987C44.376 45.8987 53.9375 36.2815 53.9375 24.5C53.9375 12.7185 44.376 3.10127 32.5 3.10127C20.624 3.10127 11.0625 12.7185 11.0625 24.5C11.0625 36.2815 20.624 45.8987 32.5 45.8987ZM32.5 49C46.031 49 57 38.031 57 24.5C57 10.969 46.031 0 32.5 0C18.969 0 8 10.969 8 24.5C8 38.031 18.969 49 32.5 49Z" fill="#2FBF71"/>
<path d="M280 24.5C280 38.031 269.031 49 255.5 49C241.969 49 231 38.031 231 24.5C231 10.969 241.969 0 255.5 0C269.031 0 280 10.969 280 24.5Z" fill="#2FBF71" fill-opacity="0.1"/>
<path fill-rule="evenodd" clip-rule="evenodd" d="M255.5 45.8987C267.376 45.8987 276.938 36.2815 276.938 24.5C276.938 12.7185 267.376 3.10127 255.5 3.10127C243.624 3.10127 234.062 12.7185 234.062 24.5C234.062 36.2815 243.624 45.8987 255.5 45.8987ZM255.5 49C269.031 49 280 38.031 280 24.5C280 10.969 269.031 0 255.5 0C241.969 0 231 10.969 231 24.5C231 38.031 241.969 49 255.5 49Z" fill="#2FBF71"/>
<path d="M132 24.5C132 38.031 121.031 49 107.5 49C93.969 49 83 38.031 83 24.5C83 10.969 93.969 0 107.5 0C121.031 0 132 10.969 132 24.5Z" fill="#2FBF71" fill-opacity="0.1"/>
<path fill-rule="evenodd" clip-rule="evenodd" d="M107.5 45.8987C119.376 45.8987 128.938 36.2815 128.938 24.5C128.938 12.7185 119.376 3.10127 107.5 3.10127C95.624 3.10127 86.0625 12.7185 86.0625 24.5C86.0625 36.2815 95.624 45.8987 107.5 45.8987ZM107.5 49C121.031 49 132 38.031 132 24.5C132 10.969 121.031 0 107.5 0C93.969 0 83 10.969 83 24.5C83 38.031 93.969 49 107.5 49Z" fill="#2FBF71"/>
<path d="M5.07448 64.0037C5.07448 64.3836 4.98475 64.7397 4.8053 65.0721C4.6325 65.4045 4.35667 65.6725 3.97783 65.876C3.60564 66.0795 3.13375 66.1813 2.56216 66.1813H1.39573V68.9084H0V61.8057H2.56216C3.10052 61.8057 3.55911 61.9007 3.93795 62.0906C4.3168 62.2806 4.59926 62.5417 4.78536 62.8741C4.97811 63.2066 5.07448 63.5831 5.07448 64.0037ZM2.50235 65.0314C2.88783 65.0314 3.17363 64.9432 3.35972 64.7669C3.54582 64.5837 3.63887 64.3293 3.63887 64.0037C3.63887 63.3117 3.26003 62.9657 2.50235 62.9657H1.39573V65.0314H2.50235Z" fill="#FFFCF2"/>
<path d="M11.1997 65.9676C11.1997 66.1711 11.1864 66.3543 11.1598 66.5171H7.1222C7.15543 66.9241 7.295 67.243 7.54092 67.4736C7.78683 67.7043 8.08924 67.8196 8.44814 67.8196C8.96656 67.8196 9.33543 67.5923 9.55476 67.1378H11.0602C10.9006 67.6805 10.5949 68.1283 10.143 68.481C9.69101 68.827 9.13604 69 8.47805 69C7.94634 69 7.46781 68.8813 7.04244 68.6438C6.62372 68.3996 6.29473 68.057 6.05546 67.6161C5.82284 67.1751 5.70653 66.6663 5.70653 66.0897C5.70653 65.5063 5.82284 64.9941 6.05546 64.5532C6.28808 64.1122 6.61375 63.773 7.03247 63.5356C7.45119 63.2981 7.93305 63.1794 8.47805 63.1794C9.00311 63.1794 9.47168 63.2947 9.88375 63.5254C10.3025 63.7561 10.6248 64.0851 10.8508 64.5125C11.0834 64.9331 11.1997 65.4181 11.1997 65.9676ZM9.75415 65.5606C9.7475 65.1942 9.6179 64.9025 9.36534 64.6854C9.11277 64.4616 8.80372 64.3496 8.43817 64.3496C8.09256 64.3496 7.80012 64.4582 7.56086 64.6753C7.32823 64.8856 7.18534 65.1807 7.13217 65.5606H9.75415Z" fill="#FFFCF2"/>
<path d="M13.6142 64.1461C13.7937 63.8476 14.0263 63.6136 14.3121 63.444C14.6045 63.2744 14.9368 63.1896 15.309 63.1896V64.6854H14.9402C14.5015 64.6854 14.1692 64.7906 13.9432 65.0009C13.7239 65.2112 13.6142 65.5775 13.6142 66.0999V68.9084H12.2185V63.271H13.6142V64.1461Z" fill="#FFFCF2"/>
<path d="M18.7814 64.4412H17.8143V68.9084H16.3987V64.4412H15.7706V63.271H16.3987V62.9861C16.3987 62.2941 16.5914 61.7853 16.9769 61.4597C17.3624 61.1341 17.9439 60.9814 18.7216 61.0018V62.2025C18.3826 62.1958 18.1467 62.2534 18.0137 62.3755C17.8808 62.4976 17.8143 62.7181 17.8143 63.037V63.271H18.7814V64.4412Z" fill="#FFFCF2"/>
<path d="M22.1384 69C21.6067 69 21.1281 68.8813 20.7028 68.6438C20.2774 68.3996 19.9418 68.057 19.6958 67.6161C19.4566 67.1751 19.3369 66.6663 19.3369 66.0897C19.3369 65.5131 19.4599 65.0043 19.7058 64.5633C19.9584 64.1224 20.3007 63.7832 20.7327 63.5458C21.1647 63.3015 21.6465 63.1794 22.1783 63.1794C22.71 63.1794 23.1918 63.3015 23.6238 63.5458C24.0558 63.7832 24.3948 64.1224 24.6407 64.5633C24.8933 65.0043 25.0196 65.5131 25.0196 66.0897C25.0196 66.6663 24.89 67.1751 24.6307 67.6161C24.3782 68.057 24.0326 68.3996 23.5939 68.6438C23.1619 68.8813 22.6767 69 22.1384 69ZM22.1384 67.7585C22.3909 67.7585 22.6269 67.6975 22.8462 67.5754C23.0722 67.4465 23.2516 67.2565 23.3846 67.0055C23.5175 66.7545 23.584 66.4493 23.584 66.0897C23.584 65.5538 23.4444 65.1434 23.1652 64.8584C22.8927 64.5667 22.5571 64.4209 22.1583 64.4209C21.7595 64.4209 21.4239 64.5667 21.1514 64.8584C20.8855 65.1434 20.7526 65.5538 20.7526 66.0897C20.7526 66.6256 20.8822 67.0395 21.1414 67.3312C21.4073 67.6161 21.7396 67.7585 22.1384 67.7585Z" fill="#FFFCF2"/>
<path d="M27.4391 64.1461C27.6186 63.8476 27.8512 63.6136 28.137 63.444C28.4294 63.2744 28.7617 63.1896 29.1339 63.1896V64.6854H28.7651C28.3264 64.6854 27.9941 64.7906 27.7681 65.0009C27.5488 65.2112 27.4391 65.5775 27.4391 66.0999V68.9084H26.0434V63.271H27.4391V64.1461Z" fill="#FFFCF2"/>
<path d="M36.933 63.1896C37.611 63.1896 38.156 63.4033 38.568 63.8307C38.9868 64.2513 39.1961 64.8415 39.1961 65.6013V68.9084H37.8004V65.7946C37.8004 65.3537 37.6907 65.0179 37.4714 64.7872C37.2521 64.5498 36.953 64.4311 36.5741 64.4311C36.1953 64.4311 35.8929 64.5498 35.6669 64.7872C35.4476 65.0179 35.3379 65.3537 35.3379 65.7946V68.9084H33.9422V65.7946C33.9422 65.3537 33.8325 65.0179 33.6132 64.7872C33.3939 64.5498 33.0948 64.4311 32.7159 64.4311C32.3305 64.4311 32.0247 64.5498 31.7987 64.7872C31.5794 65.0179 31.4698 65.3537 31.4698 65.7946V68.9084H30.074V63.271H31.4698V63.9528C31.6492 63.7154 31.8785 63.5288 32.1576 63.3931C32.4434 63.2574 32.7558 63.1896 33.0948 63.1896C33.5268 63.1896 33.9123 63.2846 34.2512 63.4745C34.5902 63.6577 34.8527 63.9223 35.0388 64.2682C35.2183 63.9426 35.4775 63.6814 35.8165 63.4847C36.1621 63.288 36.5343 63.1896 36.933 63.1896Z" fill="#FFFCF2"/>
<path d="M40.1617 66.0694C40.1617 65.4995 40.2713 64.9941 40.4907 64.5532C40.7166 64.1122 41.0191 63.773 41.3979 63.5356C41.7834 63.2981 42.2121 63.1794 42.684 63.1794C43.096 63.1794 43.4549 63.2642 43.7607 63.4338C44.073 63.6034 44.3223 63.8171 44.5084 64.0749V63.271H45.9141V68.9084H44.5084V68.0842C44.3289 68.3487 44.0797 68.5692 43.7607 68.7456C43.4483 68.9152 43.0861 69 42.674 69C42.2087 69 41.7834 68.8779 41.3979 68.6337C41.0191 68.3895 40.7166 68.0469 40.4907 67.6059C40.2713 67.1582 40.1617 66.646 40.1617 66.0694ZM44.5084 66.0897C44.5084 65.7437 44.4419 65.4486 44.309 65.2044C44.1761 64.9534 43.9966 64.7635 43.7706 64.6346C43.5447 64.4989 43.3021 64.4311 43.0429 64.4311C42.7837 64.4311 42.5444 64.4955 42.3251 64.6244C42.1057 64.7533 41.9263 64.9432 41.7867 65.1942C41.6538 65.4385 41.5873 65.7302 41.5873 66.0694C41.5873 66.4086 41.6538 66.707 41.7867 66.9648C41.9263 67.2158 42.1057 67.4092 42.3251 67.5449C42.551 67.6805 42.7903 67.7484 43.0429 67.7484C43.3021 67.7484 43.5447 67.6839 43.7706 67.555C43.9966 67.4194 44.1761 67.2294 44.309 66.9852C44.4419 66.7342 44.5084 66.4357 44.5084 66.0897Z" fill="#FFFCF2"/>
<path d="M50.3379 63.1896C50.9959 63.1896 51.5276 63.4033 51.933 63.8307C52.3384 64.2513 52.5411 64.8415 52.5411 65.6013V68.9084H51.1454V65.7946C51.1454 65.3469 51.0358 65.0043 50.8164 64.7669C50.5971 64.5226 50.298 64.4005 49.9192 64.4005C49.5337 64.4005 49.228 64.5226 49.002 64.7669C48.7827 65.0043 48.673 65.3469 48.673 65.7946V68.9084H47.2773V63.271H48.673V63.9731C48.8591 63.7289 49.095 63.539 49.3808 63.4033C49.6733 63.2608 49.9923 63.1896 50.3379 63.1896Z" fill="#FFFCF2"/>
<path d="M53.5095 66.0897C53.5095 65.5063 53.6258 64.9975 53.8584 64.5633C54.0911 64.1224 54.4134 63.7832 54.8255 63.5458C55.2376 63.3015 55.7095 63.1794 56.2412 63.1794C56.9257 63.1794 57.4907 63.3558 57.936 63.7086C58.3879 64.0545 58.6903 64.543 58.8432 65.1739H57.3378C57.258 64.9297 57.1218 64.7397 56.9291 64.604C56.743 64.4616 56.5103 64.3903 56.2312 64.3903C55.8324 64.3903 55.5167 64.5396 55.2841 64.8381C55.0515 65.1298 54.9352 65.547 54.9352 66.0897C54.9352 66.6256 55.0515 67.0428 55.2841 67.3413C55.5167 67.633 55.8324 67.7789 56.2312 67.7789C56.7961 67.7789 57.165 67.5211 57.3378 67.0055H58.8432C58.6903 67.6161 58.3879 68.1011 57.936 68.4607C57.484 68.8202 56.9191 69 56.2412 69C55.7095 69 55.2376 68.8813 54.8255 68.6438C54.4134 68.3996 54.0911 68.0604 53.8584 67.6263C53.6258 67.1853 53.5095 66.6731 53.5095 66.0897Z" fill="#FFFCF2"/>
<path d="M65 65.9676C65 66.1711 64.9867 66.3543 64.9601 66.5171H60.9225C60.9557 66.9241 61.0953 67.243 61.3412 67.4736C61.5871 67.7043 61.8895 67.8196 62.2484 67.8196C62.7668 67.8196 63.1357 67.5923 63.355 67.1378H64.8604C64.7009 67.6805 64.3952 68.1283 63.9432 68.481C63.4913 68.827 62.9363 69 62.2783 69C61.7466 69 61.2681 68.8813 60.8427 68.6438C60.424 68.3996 60.095 68.057 59.8557 67.6161C59.6231 67.1751 59.5068 66.6663 59.5068 66.0897C59.5068 65.5063 59.6231 64.9941 59.8557 64.5532C60.0883 64.1122 60.414 63.773 60.8327 63.5356C61.2515 63.2981 61.7333 63.1794 62.2783 63.1794C62.8034 63.1794 63.272 63.2947 63.684 63.5254C64.1027 63.7561 64.4251 64.0851 64.6511 64.5125C64.8837 64.9331 65 65.4181 65 65.9676ZM63.5544 65.5606C63.5478 65.1942 63.4182 64.9025 63.1656 64.6854C62.913 64.4616 62.604 64.3496 62.2384 64.3496C61.8928 64.3496 61.6004 64.4582 61.3611 64.6753C61.1285 64.8856 60.9856 65.1807 60.9324 65.5606H63.5544Z" fill="#FFFCF2"/>
<path d="M249.533 69C249.057 69 248.627 68.9184 248.242 68.7552C247.864 68.5921 247.564 68.3571 247.342 68.0503C247.121 67.7436 247.007 67.3814 247 66.9636H248.467C248.486 67.2443 248.584 67.4662 248.76 67.6294C248.943 67.7925 249.191 67.8741 249.504 67.8741C249.823 67.8741 250.074 67.7991 250.257 67.649C250.439 67.4923 250.53 67.29 250.53 67.042C250.53 66.8396 250.468 66.6732 250.345 66.5427C250.221 66.4121 250.064 66.311 249.875 66.2392C249.693 66.1608 249.438 66.076 249.112 65.9846C248.669 65.8541 248.307 65.7268 248.027 65.6028C247.753 65.4723 247.515 65.2797 247.313 65.0252C247.117 64.7641 247.02 64.4182 247.02 63.9874C247.02 63.5828 247.121 63.2303 247.323 62.9301C247.525 62.6298 247.808 62.4014 248.174 62.2448C248.539 62.0816 248.956 62 249.425 62C250.129 62 250.7 62.173 251.137 62.5189C251.58 62.8583 251.825 63.3347 251.87 63.9483H250.364C250.351 63.7133 250.25 63.5207 250.061 63.3706C249.878 63.214 249.634 63.1357 249.327 63.1357C249.06 63.1357 248.845 63.2042 248.682 63.3413C248.526 63.4783 248.447 63.6774 248.447 63.9385C248.447 64.1212 248.506 64.2746 248.623 64.3986C248.747 64.5161 248.897 64.614 249.073 64.6923C249.256 64.7641 249.51 64.849 249.836 64.9469C250.279 65.0774 250.641 65.2079 250.922 65.3385C251.202 65.469 251.443 65.6648 251.645 65.9259C251.847 66.1869 251.948 66.5296 251.948 66.9538C251.948 67.3193 251.854 67.6587 251.665 67.972C251.476 68.2853 251.199 68.5366 250.834 68.7259C250.468 68.9086 250.035 69 249.533 69Z" fill="#FFFCF2"/>
<path d="M254.504 63.2042V64.9175H256.803V66.0042H254.504V67.8154H257.096V68.9315H253.135V62.0881H257.096V63.2042H254.504Z" fill="#FFFCF2"/>
<path d="M261.509 69C260.87 69 260.283 68.8499 259.748 68.5497C259.214 68.2494 258.79 67.835 258.477 67.3063C258.164 66.7711 258.008 66.1674 258.008 65.4951C258.008 64.8294 258.164 64.2322 258.477 63.7035C258.79 63.1683 259.214 62.7506 259.748 62.4503C260.283 62.1501 260.87 62 261.509 62C262.154 62 262.741 62.1501 263.269 62.4503C263.804 62.7506 264.224 63.1683 264.531 63.7035C264.844 64.2322 265 64.8294 265 65.4951C265 66.1674 264.844 66.7711 264.531 67.3063C264.224 67.835 263.804 68.2494 263.269 68.5497C262.734 68.8499 262.148 69 261.509 69ZM261.509 67.7762C261.919 67.7762 262.281 67.6848 262.594 67.5021C262.907 67.3128 263.152 67.0452 263.328 66.6993C263.504 66.3534 263.592 65.952 263.592 65.4951C263.592 65.0382 263.504 64.6401 263.328 64.3007C263.152 63.9548 262.907 63.6904 262.594 63.5077C262.281 63.3249 261.919 63.2336 261.509 63.2336C261.098 63.2336 260.733 63.3249 260.413 63.5077C260.101 63.6904 259.856 63.9548 259.68 64.3007C259.504 64.6401 259.416 65.0382 259.416 65.4951C259.416 65.952 259.504 66.3534 259.68 66.6993C259.856 67.0452 260.101 67.3128 260.413 67.5021C260.733 67.6848 261.098 67.7762 261.509 67.7762Z" fill="#FFFCF2"/>
<path d="M175.222 65.3892C175.606 65.4623 175.922 65.6584 176.169 65.9773C176.417 66.2963 176.54 66.6618 176.54 67.0739C176.54 67.446 176.449 67.775 176.267 68.0607C176.091 68.3398 175.834 68.5591 175.495 68.7186C175.157 68.8781 174.756 68.9579 174.294 68.9579H171.353V62H174.167C174.629 62 175.026 62.0764 175.358 62.2293C175.697 62.3821 175.951 62.5948 176.12 62.8672C176.296 63.1397 176.384 63.4487 176.384 63.7943C176.384 64.1997 176.277 64.5386 176.062 64.8111C175.853 65.0835 175.573 65.2762 175.222 65.3892ZM172.721 64.8709H173.971C174.297 64.8709 174.548 64.7978 174.723 64.6516C174.899 64.4987 174.987 64.2827 174.987 64.0036C174.987 63.7245 174.899 63.5085 174.723 63.3557C174.548 63.2028 174.297 63.1264 173.971 63.1264H172.721V64.8709ZM174.098 67.8215C174.43 67.8215 174.688 67.7417 174.87 67.5822C175.059 67.4227 175.153 67.1968 175.153 66.9044C175.153 66.6053 175.056 66.3728 174.86 66.2066C174.665 66.0338 174.401 65.9474 174.069 65.9474H172.721V67.8215H174.098Z" fill="#FFFCF2"/>
<path d="M182.661 66.077C182.661 66.2764 182.648 66.4558 182.622 66.6153H178.666C178.698 67.014 178.835 67.3264 179.076 67.5523C179.317 67.7783 179.613 67.8913 179.965 67.8913C180.473 67.8913 180.834 67.6686 181.049 67.2234H182.524C182.368 67.755 182.068 68.1936 181.625 68.5392C181.183 68.8781 180.639 69.0476 179.994 69.0476C179.473 69.0476 179.004 68.9313 178.588 68.6987C178.177 68.4594 177.855 68.1238 177.621 67.6919C177.393 67.2599 177.279 66.7615 177.279 66.1966C177.279 65.6251 177.393 65.1234 177.621 64.6914C177.848 64.2595 178.168 63.9272 178.578 63.6946C178.988 63.462 179.46 63.3457 179.994 63.3457C180.509 63.3457 180.968 63.4587 181.372 63.6846C181.782 63.9106 182.098 64.2329 182.319 64.6516C182.547 65.0636 182.661 65.5387 182.661 66.077ZM181.245 65.6783C181.238 65.3194 181.111 65.0337 180.864 64.821C180.616 64.6017 180.313 64.4921 179.955 64.4921C179.616 64.4921 179.33 64.5984 179.096 64.8111C178.868 65.0171 178.728 65.3061 178.675 65.6783H181.245Z" fill="#FFFCF2"/>
<path d="M185.73 69.0476C185.287 69.0476 184.89 68.9678 184.538 68.8083C184.187 68.6422 183.907 68.4196 183.698 68.1405C183.496 67.8613 183.386 67.5523 183.366 67.2134H184.743C184.769 67.4261 184.87 67.6022 185.046 67.7417C185.229 67.8813 185.453 67.9511 185.72 67.9511C185.981 67.9511 186.183 67.8979 186.326 67.7916C186.476 67.6852 186.551 67.549 186.551 67.3829C186.551 67.2034 186.459 67.0705 186.277 66.9841C186.101 66.8911 185.818 66.7914 185.427 66.6851C185.023 66.5854 184.691 66.4824 184.431 66.3761C184.177 66.2697 183.955 66.1069 183.767 65.8876C183.584 65.6683 183.493 65.3726 183.493 65.0005C183.493 64.6948 183.578 64.4156 183.747 64.1631C183.923 63.9106 184.17 63.7112 184.489 63.565C184.815 63.4188 185.196 63.3457 185.632 63.3457C186.277 63.3457 186.791 63.5119 187.176 63.8441C187.56 64.1698 187.772 64.6117 187.811 65.1699H186.502C186.482 64.9506 186.391 64.7778 186.228 64.6516C186.072 64.5187 185.86 64.4522 185.593 64.4522C185.346 64.4522 185.154 64.4987 185.017 64.5918C184.887 64.6848 184.822 64.8144 184.822 64.9805C184.822 65.1666 184.913 65.3095 185.095 65.4092C185.277 65.5022 185.561 65.5986 185.945 65.6982C186.336 65.7979 186.658 65.9009 186.912 66.0072C187.166 66.1136 187.384 66.2797 187.566 66.5057C187.755 66.725 187.853 67.0174 187.859 67.3829C187.859 67.7019 187.772 67.9876 187.596 68.2401C187.426 68.4927 187.179 68.692 186.853 68.8382C186.534 68.9778 186.16 69.0476 185.73 69.0476Z" fill="#FFFCF2"/>
<path d="M190.574 64.5818V67.2533C190.574 67.4394 190.617 67.5756 190.701 67.662C190.792 67.7417 190.942 67.7816 191.151 67.7816H191.786V68.9579H190.926C189.773 68.9579 189.197 68.3863 189.197 67.2433V64.5818H188.552V63.4354H189.197V62.0698H190.574V63.4354H191.786V64.5818H190.574Z" fill="#FFFCF2"/>
<path d="M163.972 79.1056C163.972 79.4777 163.884 79.8266 163.708 80.1522C163.539 80.4779 163.269 80.7404 162.898 80.9397C162.533 81.1391 162.07 81.2388 161.51 81.2388H160.368V83.9103H159V76.9524H161.51C162.038 76.9524 162.487 77.0455 162.858 77.2315C163.23 77.4176 163.506 77.6735 163.689 77.9991C163.878 78.3247 163.972 78.6935 163.972 79.1056ZM161.452 80.1124C161.83 80.1124 162.11 80.026 162.292 79.8532C162.474 79.6738 162.565 79.4246 162.565 79.1056C162.565 78.4277 162.194 78.0888 161.452 78.0888H160.368V80.1124H161.452Z" fill="#FFFCF2"/>
<path d="M166.311 79.2451C166.486 78.9527 166.714 78.7235 166.994 78.5573C167.281 78.3912 167.606 78.3081 167.971 78.3081V79.7734H167.61C167.18 79.7734 166.854 79.8765 166.633 80.0825C166.418 80.2885 166.311 80.6473 166.311 81.159V83.9103H164.943V78.3879H166.311V79.2451Z" fill="#FFFCF2"/>
<path d="M168.541 81.1291C168.541 80.5709 168.648 80.0758 168.863 79.6439C169.084 79.2119 169.381 78.8796 169.752 78.647C170.13 78.4144 170.55 78.2981 171.012 78.2981C171.416 78.2981 171.767 78.3812 172.067 78.5473C172.373 78.7135 172.617 78.9228 172.8 79.1754V78.3879H174.177V83.9103H172.8V83.1029C172.624 83.362 172.38 83.578 172.067 83.7508C171.761 83.9169 171.406 84 171.002 84C170.546 84 170.13 83.8804 169.752 83.6411C169.381 83.4019 169.084 83.0663 168.863 82.6343C168.648 82.1957 168.541 81.694 168.541 81.1291ZM172.8 81.1491C172.8 80.8101 172.734 80.5211 172.604 80.2818C172.474 80.0359 172.298 79.8499 172.077 79.7236C171.855 79.5907 171.618 79.5242 171.364 79.5242C171.11 79.5242 170.875 79.5874 170.66 79.7136C170.445 79.8399 170.27 80.026 170.133 80.2719C170.003 80.5111 169.937 80.7969 169.937 81.1291C169.937 81.4614 170.003 81.7538 170.133 82.0063C170.27 82.2522 170.445 82.4416 170.66 82.5745C170.882 82.7074 171.116 82.7739 171.364 82.7739C171.618 82.7739 171.855 82.7108 172.077 82.5845C172.298 82.4516 172.474 82.2655 172.604 82.0263C172.734 81.7804 172.8 81.488 172.8 81.1491Z" fill="#FFFCF2"/>
<path d="M175.161 81.1491C175.161 80.5776 175.275 80.0791 175.503 79.6538C175.731 79.2219 176.047 78.8896 176.45 78.657C176.854 78.4178 177.316 78.2981 177.837 78.2981C178.508 78.2981 179.062 78.4709 179.498 78.8165C179.941 79.1554 180.237 79.6339 180.387 80.2519H178.912C178.834 80.0127 178.7 79.8266 178.511 79.6937C178.329 79.5541 178.101 79.4844 177.828 79.4844C177.437 79.4844 177.128 79.6306 176.9 79.923C176.672 80.2087 176.558 80.6174 176.558 81.1491C176.558 81.6741 176.672 82.0828 176.9 82.3752C177.128 82.6609 177.437 82.8038 177.828 82.8038C178.381 82.8038 178.743 82.5513 178.912 82.0462H180.387C180.237 82.6443 179.941 83.1195 179.498 83.4717C179.055 83.8239 178.502 84 177.837 84C177.316 84 176.854 83.8837 176.45 83.6511C176.047 83.4119 175.731 83.0796 175.503 82.6543C175.275 82.2223 175.161 81.7206 175.161 81.1491Z" fill="#FFFCF2"/>
<path d="M182.981 79.5342V82.2057C182.981 82.3918 183.023 82.528 183.108 82.6144C183.199 82.6942 183.349 82.734 183.557 82.734H184.192V83.9103H183.333C182.18 83.9103 181.604 83.3388 181.604 82.1957V79.5342H180.959V78.3879H181.604V77.0222H182.981V78.3879H184.192V79.5342H182.981Z" fill="#FFFCF2"/>
<path d="M185.869 77.73C185.628 77.73 185.427 77.6535 185.264 77.5007C185.107 77.3412 185.029 77.1451 185.029 76.9126C185.029 76.68 185.107 76.4872 185.264 76.3344C185.427 76.1749 185.628 76.0952 185.869 76.0952C186.11 76.0952 186.309 76.1749 186.465 76.3344C186.628 76.4872 186.709 76.68 186.709 76.9126C186.709 77.1451 186.628 77.3412 186.465 77.5007C186.309 77.6535 186.11 77.73 185.869 77.73ZM186.543 78.3879V83.9103H185.176V78.3879H186.543Z" fill="#FFFCF2"/>
<path d="M187.543 81.1491C187.543 80.5776 187.657 80.0791 187.885 79.6538C188.113 79.2219 188.429 78.8896 188.832 78.657C189.236 78.4178 189.698 78.2981 190.219 78.2981C190.89 78.2981 191.444 78.4709 191.88 78.8165C192.323 79.1554 192.619 79.6339 192.769 80.2519H191.294C191.216 80.0127 191.082 79.8266 190.893 79.6937C190.711 79.5541 190.483 79.4844 190.21 79.4844C189.819 79.4844 189.51 79.6306 189.282 79.923C189.054 80.2087 188.94 80.6174 188.94 81.1491C188.94 81.6741 189.054 82.0828 189.282 82.3752C189.51 82.6609 189.819 82.8038 190.21 82.8038C190.763 82.8038 191.125 82.5513 191.294 82.0462H192.769C192.619 82.6443 192.323 83.1195 191.88 83.4717C191.437 83.8239 190.884 84 190.219 84C189.698 84 189.236 83.8837 188.832 83.6511C188.429 83.4119 188.113 83.0796 187.885 82.6543C187.657 82.2223 187.543 81.7206 187.543 81.1491Z" fill="#FFFCF2"/>
<path d="M198.801 81.0295C198.801 81.2288 198.788 81.4082 198.762 81.5677H194.806C194.839 81.9665 194.976 82.2788 195.216 82.5048C195.457 82.7307 195.754 82.8437 196.105 82.8437C196.613 82.8437 196.975 82.6211 197.19 82.1758H198.665C198.508 82.7074 198.209 83.1461 197.766 83.4916C197.323 83.8305 196.779 84 196.135 84C195.614 84 195.145 83.8837 194.728 83.6511C194.318 83.4119 193.995 83.0763 193.761 82.6443C193.533 82.2124 193.419 81.7139 193.419 81.1491C193.419 80.5776 193.533 80.0758 193.761 79.6439C193.989 79.2119 194.308 78.8796 194.718 78.647C195.129 78.4144 195.601 78.2981 196.135 78.2981C196.649 78.2981 197.108 78.4111 197.512 78.6371C197.922 78.863 198.238 79.1853 198.46 79.604C198.687 80.016 198.801 80.4912 198.801 81.0295ZM197.385 80.6307C197.379 80.2719 197.252 79.9861 197.004 79.7734C196.757 79.5541 196.454 79.4445 196.096 79.4445C195.757 79.4445 195.47 79.5508 195.236 79.7635C195.008 79.9695 194.868 80.2586 194.816 80.6307H197.385Z" fill="#FFFCF2"/>
<path d="M201.871 84C201.428 84 201.03 83.9203 200.679 83.7608C200.327 83.5946 200.047 83.372 199.839 83.0929C199.637 82.8138 199.526 82.5048 199.507 82.1658H200.884C200.91 82.3785 201.011 82.5546 201.187 82.6942C201.369 82.8337 201.594 82.9035 201.861 82.9035C202.121 82.9035 202.323 82.8503 202.466 82.744C202.616 82.6377 202.691 82.5014 202.691 82.3353C202.691 82.1559 202.6 82.023 202.418 81.9366C202.242 81.8435 201.958 81.7438 201.568 81.6375C201.164 81.5378 200.832 81.4348 200.571 81.3285C200.317 81.2222 200.096 81.0594 199.907 80.8401C199.725 80.6208 199.634 80.325 199.634 79.9529C199.634 79.6472 199.718 79.3681 199.888 79.1155C200.063 78.863 200.311 78.6636 200.63 78.5174C200.956 78.3712 201.337 78.2981 201.773 78.2981C202.418 78.2981 202.932 78.4643 203.316 78.7966C203.7 79.1222 203.912 79.5641 203.951 80.1223H202.642C202.623 79.903 202.531 79.7303 202.369 79.604C202.212 79.4711 202.001 79.4046 201.734 79.4046C201.486 79.4046 201.294 79.4511 201.157 79.5442C201.027 79.6372 200.962 79.7668 200.962 79.9329C200.962 80.119 201.053 80.2619 201.236 80.3616C201.418 80.4546 201.701 80.551 202.085 80.6507C202.476 80.7503 202.799 80.8533 203.052 80.9597C203.306 81.066 203.525 81.2321 203.707 81.4581C203.896 81.6774 203.993 81.9698 204 82.3353C204 82.6543 203.912 82.94 203.736 83.1926C203.567 83.4451 203.319 83.6445 202.994 83.7907C202.675 83.9302 202.3 84 201.871 84Z" fill="#FFFCF2"/>
<path d="M80.7265 67.2237H77.9368L77.4751 68.4952H76L78.5188 61.8126H80.1545L82.6733 68.4952H81.1881L80.7265 67.2237ZM80.3451 66.153L79.3316 63.3614L78.3181 66.153H80.3451Z" fill="#FFFCF2"/>
<path d="M83.2535 65.847C83.2535 65.2989 83.3706 64.8209 83.6047 64.413C83.8389 63.9987 84.1633 63.6801 84.5781 63.457C84.9929 63.2275 85.4679 63.1128 86.0031 63.1128C86.6921 63.1128 87.2608 63.2785 87.709 63.6099C88.1639 63.935 88.4683 64.3939 88.6222 64.9866H87.1069C87.0266 64.7572 86.8895 64.5787 86.6955 64.4512C86.5082 64.3174 86.274 64.2505 85.993 64.2505C85.5916 64.2505 85.2739 64.3907 85.0397 64.6711C84.8056 64.9452 84.6885 65.3372 84.6885 65.847C84.6885 66.3505 84.8056 66.7425 85.0397 67.0229C85.2739 67.297 85.5916 67.434 85.993 67.434C86.5617 67.434 86.933 67.1918 87.1069 66.7075H88.6222C88.4683 67.2811 88.1639 67.7368 87.709 68.0746C87.2541 68.4124 86.6855 68.5813 86.0031 68.5813C85.4679 68.5813 84.9929 68.4697 84.5781 68.2467C84.1633 68.0172 83.8389 67.6985 83.6047 67.2906C83.3706 66.8764 83.2535 66.3952 83.2535 65.847Z" fill="#FFFCF2"/>
<path d="M89.2902 65.847C89.2902 65.2989 89.4072 64.8209 89.6414 64.413C89.8755 63.9987 90.2 63.6801 90.6148 63.457C91.0296 63.2275 91.5045 63.1128 92.0397 63.1128C92.7288 63.1128 93.2975 63.2785 93.7457 63.6099C94.2006 63.935 94.505 64.3939 94.6589 64.9866H93.1436C93.0633 64.7572 92.9262 64.5787 92.7322 64.4512C92.5448 64.3174 92.3107 64.2505 92.0297 64.2505C91.6283 64.2505 91.3105 64.3907 91.0764 64.6711C90.8422 64.9452 90.7252 65.3372 90.7252 65.847C90.7252 66.3505 90.8422 66.7425 91.0764 67.0229C91.3105 67.297 91.6283 67.434 92.0297 67.434C92.5984 67.434 92.9697 67.1918 93.1436 66.7075H94.6589C94.505 67.2811 94.2006 67.7368 93.7457 68.0746C93.2908 68.4124 92.7221 68.5813 92.0397 68.5813C91.5045 68.5813 91.0296 68.4697 90.6148 68.2467C90.2 68.0172 89.8755 67.6985 89.6414 67.2906C89.4072 66.8764 89.2902 66.3952 89.2902 65.847Z" fill="#FFFCF2"/>
<path d="M100.856 65.7323C100.856 65.9235 100.843 66.0956 100.816 66.2486H96.7518C96.7853 66.631 96.9257 66.9305 97.1733 67.1472C97.4208 67.3639 97.7252 67.4723 98.0865 67.4723C98.6083 67.4723 98.9796 67.2588 99.2003 66.8317H100.716C100.555 67.3416 100.247 67.7623 99.7924 68.0937C99.3375 68.4187 98.7789 68.5813 98.1166 68.5813C97.5814 68.5813 97.0997 68.4697 96.6715 68.2467C96.2501 68.0172 95.9189 67.6953 95.6781 67.2811C95.4439 66.8668 95.3268 66.3888 95.3268 65.847C95.3268 65.2989 95.4439 64.8177 95.6781 64.4034C95.9122 63.9892 96.24 63.6705 96.6615 63.4474C97.083 63.2243 97.568 63.1128 98.1166 63.1128C98.6451 63.1128 99.1167 63.2212 99.5315 63.4379C99.953 63.6546 100.277 63.9637 100.505 64.3652C100.739 64.7604 100.856 65.2161 100.856 65.7323ZM99.401 65.3499C99.3943 65.0057 99.2639 64.7317 99.0097 64.5277C98.7555 64.3174 98.4444 64.2122 98.0764 64.2122C97.7285 64.2122 97.4342 64.3142 97.1933 64.5182C96.9592 64.7157 96.8154 64.993 96.7618 65.3499H99.401Z" fill="#FFFCF2"/>
<path d="M104.009 68.5813C103.554 68.5813 103.146 68.5048 102.785 68.3518C102.423 68.1925 102.136 67.979 101.922 67.7113C101.714 67.4436 101.601 67.1472 101.581 66.8222H102.995C103.022 67.0261 103.126 67.195 103.307 67.3289C103.494 67.4627 103.725 67.5296 103.999 67.5296C104.267 67.5296 104.474 67.4786 104.621 67.3767C104.775 67.2747 104.852 67.144 104.852 66.9847C104.852 66.8126 104.758 66.6851 104.571 66.6023C104.39 66.5131 104.099 66.4175 103.698 66.3155C103.283 66.2199 102.942 66.1211 102.674 66.0191C102.413 65.9171 102.186 65.761 101.992 65.5507C101.805 65.3403 101.711 65.0567 101.711 64.6998C101.711 64.4066 101.798 64.1389 101.972 63.8967C102.153 63.6546 102.407 63.4634 102.735 63.3231C103.069 63.1829 103.46 63.1128 103.909 63.1128C104.571 63.1128 105.099 63.2721 105.494 63.5908C105.889 63.9031 106.106 64.327 106.146 64.8623H104.802C104.782 64.652 104.688 64.4863 104.521 64.3652C104.36 64.2377 104.143 64.174 103.868 64.174C103.614 64.174 103.417 64.2186 103.276 64.3078C103.143 64.3971 103.076 64.5214 103.076 64.6807C103.076 64.8591 103.169 64.9962 103.357 65.0918C103.544 65.181 103.835 65.2734 104.23 65.369C104.631 65.4646 104.962 65.5634 105.223 65.6654C105.484 65.7674 105.708 65.9267 105.896 66.1434C106.09 66.3537 106.19 66.6342 106.197 66.9847C106.197 67.2906 106.106 67.5647 105.926 67.8069C105.752 68.0491 105.497 68.2403 105.163 68.3805C104.835 68.5143 104.451 68.5813 104.009 68.5813Z" fill="#FFFCF2"/>
<path d="M109.477 68.5813C109.022 68.5813 108.614 68.5048 108.253 68.3518C107.892 68.1925 107.604 67.979 107.39 67.7113C107.183 67.4436 107.069 67.1472 107.049 66.8222H108.464C108.49 67.0261 108.594 67.195 108.775 67.3289C108.962 67.4627 109.193 67.5296 109.467 67.5296C109.735 67.5296 109.942 67.4786 110.089 67.3767C110.243 67.2747 110.32 67.144 110.32 66.9847C110.32 66.8126 110.227 66.6851 110.039 66.6023C109.859 66.5131 109.568 66.4175 109.166 66.3155C108.751 66.2199 108.41 66.1211 108.143 66.0191C107.882 65.9171 107.654 65.761 107.46 65.5507C107.273 65.3403 107.179 65.0567 107.179 64.6998C107.179 64.4066 107.266 64.1389 107.44 63.8967C107.621 63.6546 107.875 63.4634 108.203 63.3231C108.537 63.1829 108.929 63.1128 109.377 63.1128C110.039 63.1128 110.568 63.2721 110.962 63.5908C111.357 63.9031 111.575 64.327 111.615 64.8623H110.27C110.25 64.652 110.156 64.4863 109.989 64.3652C109.828 64.2377 109.611 64.174 109.337 64.174C109.083 64.174 108.885 64.2186 108.745 64.3078C108.611 64.3971 108.544 64.5214 108.544 64.6807C108.544 64.8591 108.638 64.9962 108.825 65.0918C109.012 65.181 109.303 65.2734 109.698 65.369C110.099 65.4646 110.431 65.5634 110.691 65.6654C110.952 65.7674 111.177 65.9267 111.364 66.1434C111.558 66.3537 111.658 66.6342 111.665 66.9847C111.665 67.2906 111.575 67.5647 111.394 67.8069C111.22 68.0491 110.966 68.2403 110.631 68.3805C110.303 68.5143 109.919 68.5813 109.477 68.5813Z" fill="#FFFCF2"/>
<path d="M113.531 62.5679C113.283 62.5679 113.076 62.4946 112.908 62.348C112.748 62.195 112.668 62.007 112.668 61.7839C112.668 61.5609 112.748 61.376 112.908 61.2294C113.076 61.0765 113.283 61 113.531 61C113.778 61 113.982 61.0765 114.143 61.2294C114.31 61.376 114.394 61.5609 114.394 61.7839C114.394 62.007 114.31 62.195 114.143 62.348C113.982 62.4946 113.778 62.5679 113.531 62.5679ZM114.223 63.1989V68.4952H112.818V63.1989H114.223Z" fill="#FFFCF2"/>
<path d="M117.016 63.9732C117.197 63.7183 117.444 63.5112 117.759 63.3518C118.08 63.1925 118.444 63.1128 118.852 63.1128C119.327 63.1128 119.756 63.2243 120.137 63.4474C120.525 63.6705 120.829 63.9892 121.05 64.4034C121.277 64.8113 121.391 65.2862 121.391 65.8279C121.391 66.3697 121.277 66.8509 121.05 67.2715C120.829 67.6858 120.525 68.0076 120.137 68.2371C119.756 68.4665 119.327 68.5813 118.852 68.5813C118.438 68.5813 118.073 68.5048 117.759 68.3518C117.451 68.1925 117.203 67.9885 117.016 67.74V68.4952H115.611V61.4207H117.016V63.9732ZM119.956 65.8279C119.956 65.5092 119.886 65.2352 119.745 65.0057C119.612 64.7699 119.431 64.5915 119.204 64.4704C118.983 64.3493 118.742 64.2887 118.481 64.2887C118.227 64.2887 117.986 64.3525 117.759 64.4799C117.538 64.601 117.357 64.7795 117.217 65.0153C117.083 65.2511 117.016 65.5284 117.016 65.847C117.016 66.1657 117.083 66.443 117.217 66.6788C117.357 66.9146 117.538 67.0962 117.759 67.2237C117.986 67.3448 118.227 67.4054 118.481 67.4054C118.742 67.4054 118.983 67.3416 119.204 67.2141C119.431 67.0867 119.612 66.905 119.745 66.6692C119.886 66.4334 119.956 66.153 119.956 65.8279Z" fill="#FFFCF2"/>
<path d="M123.125 62.5679C122.877 62.5679 122.67 62.4946 122.502 62.348C122.342 62.195 122.262 62.007 122.262 61.7839C122.262 61.5609 122.342 61.376 122.502 61.2294C122.67 61.0765 122.877 61 123.125 61C123.372 61 123.576 61.0765 123.737 61.2294C123.904 61.376 123.988 61.5609 123.988 61.7839C123.988 62.007 123.904 62.195 123.737 62.348C123.576 62.4946 123.372 62.5679 123.125 62.5679ZM123.817 63.1989V68.4952H122.412V63.1989H123.817Z" fill="#FFFCF2"/>
<path d="M126.61 61.4207V68.4952H125.205V61.4207H126.61Z" fill="#FFFCF2"/>
<path d="M128.71 62.5679C128.463 62.5679 128.256 62.4946 128.088 62.348C127.928 62.195 127.847 62.007 127.847 61.7839C127.847 61.5609 127.928 61.376 128.088 61.2294C128.256 61.0765 128.463 61 128.71 61C128.958 61 129.162 61.0765 129.323 61.2294C129.49 61.376 129.573 61.5609 129.573 61.7839C129.573 62.007 129.49 62.195 129.323 62.348C129.162 62.4946 128.958 62.5679 128.71 62.5679ZM129.403 63.1989V68.4952H127.998V63.1989H129.403Z" fill="#FFFCF2"/>
<path d="M132.427 64.2983V66.8604C132.427 67.0389 132.47 67.1695 132.557 67.2524C132.651 67.3289 132.805 67.3671 133.019 67.3671H133.671V68.4952H132.788C131.604 68.4952 131.012 67.9471 131.012 66.8509V64.2983H130.349V63.1989H131.012V61.8891H132.427V63.1989H133.671V64.2983H132.427Z" fill="#FFFCF2"/>
<path d="M140 63.1989L136.558 71H135.063L136.267 68.3614L134.039 63.1989H135.615L137.05 66.8987L138.505 63.1989H140Z" fill="#FFFCF2"/>
<path d="M174.283 26.2387C174.468 27.1516 175.037 27.608 175.989 27.608C176.645 27.608 177.108 27.3364 177.38 26.7933C177.652 26.2502 177.788 25.3662 177.788 24.1413C177.516 24.4996 177.145 24.7769 176.676 24.9733C176.206 25.1698 175.68 25.268 175.099 25.268C174.308 25.268 173.603 25.1178 172.985 24.8173C172.366 24.5053 171.878 24.0489 171.519 23.448C171.173 22.8356 171 22.096 171 21.2293C171 20.3742 171.185 19.6289 171.556 18.9933C171.94 18.3578 172.478 17.8667 173.17 17.52C173.875 17.1733 174.703 17 175.655 17C177.485 17 178.765 17.5316 179.495 18.5947C180.224 19.6578 180.589 21.2236 180.589 23.292C180.589 24.7942 180.441 26.0364 180.144 27.0187C179.859 27.9893 179.371 28.7289 178.679 29.2373C177.999 29.7458 177.065 30 175.878 30C174.938 30 174.135 29.8267 173.467 29.48C172.811 29.1333 172.305 28.6769 171.946 28.1107C171.6 27.5444 171.402 26.9204 171.352 26.2387H174.283ZM175.822 22.928C176.342 22.928 176.756 22.7836 177.065 22.4947C177.374 22.1942 177.529 21.7898 177.529 21.2813C177.529 20.7267 177.368 20.2991 177.046 19.9987C176.725 19.6982 176.292 19.548 175.748 19.548C175.204 19.548 174.771 19.704 174.45 20.016C174.141 20.3164 173.986 20.7324 173.986 21.264C173.986 21.7609 174.141 22.1653 174.45 22.4773C174.771 22.7778 175.229 22.928 175.822 22.928Z" fill="#2FBF71"/>
<path d="M185.694 26.2387C185.879 27.1516 186.448 27.608 187.4 27.608C188.056 27.608 188.519 27.3364 188.791 26.7933C189.063 26.2502 189.199 25.3662 189.199 24.1413C188.927 24.4996 188.556 24.7769 188.087 24.9733C187.617 25.1698 187.091 25.268 186.51 25.268C185.719 25.268 185.014 25.1178 184.396 24.8173C183.777 24.5053 183.289 24.0489 182.93 23.448C182.584 22.8356 182.411 22.096 182.411 21.2293C182.411 20.3742 182.596 19.6289 182.967 18.9933C183.351 18.3578 183.889 17.8667 184.581 17.52C185.286 17.1733 186.114 17 187.066 17C188.896 17 190.176 17.5316 190.906 18.5947C191.635 19.6578 192 21.2236 192 23.292C192 24.7942 191.852 26.0364 191.555 27.0187C191.27 27.9893 190.782 28.7289 190.09 29.2373C189.41 29.7458 188.476 30 187.289 30C186.349 30 185.546 29.8267 184.878 29.48C184.222 29.1333 183.715 28.6769 183.357 28.1107C183.011 27.5444 182.813 26.9204 182.763 26.2387H185.694ZM187.233 22.928C187.753 22.928 188.167 22.7836 188.476 22.4947C188.785 22.1942 188.94 21.7898 188.94 21.2813C188.94 20.7267 188.779 20.2991 188.457 19.9987C188.136 19.6982 187.703 19.548 187.159 19.548C186.615 19.548 186.182 19.704 185.861 20.016C185.552 20.3164 185.397 20.7324 185.397 21.264C185.397 21.7609 185.552 22.1653 185.861 22.4773C186.182 22.7778 186.64 22.928 187.233 22.928Z" fill="#2FBF71"/>
<path d="M25.4392 26.2387C25.6335 27.1516 26.2294 27.608 27.2268 27.608C27.9134 27.608 28.3991 27.3364 28.6841 26.7933C28.9691 26.2502 29.1116 25.3662 29.1116 24.1413C28.8266 24.4996 28.438 24.7769 27.9458 24.9733C27.4535 25.1698 26.903 25.268 26.2942 25.268C25.4651 25.268 24.7268 25.1178 24.0791 24.8173C23.4314 24.5053 22.9197 24.0489 22.5441 23.448C22.1814 22.8356 22 22.096 22 21.2293C22 20.3742 22.1943 19.6289 22.5829 18.9933C22.9845 18.3578 23.548 17.8667 24.2734 17.52C25.0117 17.1733 25.8796 17 26.8771 17C28.7942 17 30.1349 17.5316 30.8992 18.5947C31.6635 19.6578 32.0456 21.2236 32.0456 23.292C32.0456 24.7942 31.8902 26.0364 31.5793 27.0187C31.2814 27.9893 30.7697 28.7289 30.0443 29.2373C29.3318 29.7458 28.3538 30 27.1102 30C26.1258 30 25.2838 29.8267 24.5843 29.48C23.8977 29.1333 23.3666 28.6769 22.991 28.1107C22.6283 27.5444 22.421 26.9204 22.3692 26.2387H25.4392ZM27.052 22.928C27.596 22.928 28.03 22.7836 28.3538 22.4947C28.6777 22.1942 28.8396 21.7898 28.8396 21.2813C28.8396 20.7267 28.6712 20.2991 28.3344 19.9987C27.9976 19.6982 27.5442 19.548 26.9742 19.548C26.4043 19.548 25.9509 19.704 25.6141 20.016C25.2902 20.3164 25.1283 20.7324 25.1283 21.264C25.1283 21.7609 25.2902 22.1653 25.6141 22.4773C25.9509 22.7778 26.4302 22.928 27.052 22.928Z" fill="#2FBF71"/>
<path d="M37.3936 26.2387C37.5879 27.1516 38.1838 27.608 39.1812 27.608C39.8678 27.608 40.3535 27.3364 40.6385 26.7933C40.9235 26.2502 41.066 25.3662 41.066 24.1413C40.781 24.4996 40.3924 24.7769 39.9001 24.9733C39.4079 25.1698 38.8574 25.268 38.2485 25.268C37.4195 25.268 36.6811 25.1178 36.0335 24.8173C35.3858 24.5053 34.8741 24.0489 34.4984 23.448C34.1357 22.8356 33.9544 22.096 33.9544 21.2293C33.9544 20.3742 34.1487 19.6289 34.5373 18.9933C34.9389 18.3578 35.5023 17.8667 36.2278 17.52C36.9661 17.1733 37.834 17 38.8315 17C40.7486 17 42.0893 17.5316 42.8536 18.5947C43.6179 19.6578 44 21.2236 44 23.292C44 24.7942 43.8446 26.0364 43.5337 27.0187C43.2357 27.9893 42.7241 28.7289 41.9986 29.2373C41.2862 29.7458 40.3082 30 39.0646 30C38.0801 30 37.2381 29.8267 36.5386 29.48C35.8521 29.1333 35.321 28.6769 34.9453 28.1107C34.5826 27.5444 34.3754 26.9204 34.3236 26.2387H37.3936ZM39.0063 22.928C39.5504 22.928 39.9843 22.7836 40.3082 22.4947C40.632 22.1942 40.794 21.7898 40.794 21.2813C40.794 20.7267 40.6256 20.2991 40.2888 19.9987C39.952 19.6982 39.4986 19.548 38.9286 19.548C38.3586 19.548 37.9053 19.704 37.5685 20.016C37.2446 20.3164 37.0827 20.7324 37.0827 21.264C37.0827 21.7609 37.2446 22.1653 37.5685 22.4773C37.9053 22.7778 38.3846 22.928 39.0063 22.928Z" fill="#2FBF71"/>
<path d="M248.365 26.8055C248.555 27.7744 249.138 28.2589 250.114 28.2589C250.786 28.2589 251.261 27.9707 251.54 27.3942C251.819 26.8178 251.958 25.8795 251.958 24.5795C251.679 24.9597 251.299 25.2541 250.817 25.4626C250.336 25.671 249.797 25.7753 249.201 25.7753C248.39 25.7753 247.668 25.6159 247.034 25.297C246.4 24.9658 245.9 24.4814 245.532 23.8436C245.177 23.1936 245 22.4087 245 21.4888C245 20.5813 245.19 19.7902 245.57 19.1156C245.963 18.4411 246.515 17.9198 247.224 17.5519C247.947 17.184 248.796 17 249.772 17C251.647 17 252.959 17.5642 253.707 18.6925C254.455 19.8209 254.829 21.4827 254.829 23.6781C254.829 25.2724 254.677 26.5909 254.372 27.6334C254.081 28.6636 253.58 29.4485 252.87 29.9882C252.173 30.5278 251.217 30.7976 250 30.7976C249.037 30.7976 248.213 30.6137 247.528 30.2457C246.857 29.8778 246.337 29.3933 245.97 28.7924C245.615 28.1914 245.412 27.5291 245.361 26.8055H248.365ZM249.943 23.2917C250.475 23.2917 250.9 23.1384 251.217 22.8318C251.533 22.5129 251.692 22.0837 251.692 21.544C251.692 20.9553 251.527 20.5015 251.198 20.1827C250.868 19.8638 250.424 19.7043 249.867 19.7043C249.309 19.7043 248.866 19.8699 248.536 20.2011C248.219 20.5199 248.061 20.9615 248.061 21.5256C248.061 22.053 248.219 22.4823 248.536 22.8134C248.866 23.1323 249.334 23.2917 249.943 23.2917Z" fill="#2FBF71"/>
<path d="M258.844 23.5309C257.653 22.9177 257.057 21.9549 257.057 20.6426C257.057 19.9803 257.235 19.3793 257.59 18.8397C257.945 18.2878 258.483 17.8524 259.206 17.5335C259.928 17.2024 260.815 17.0368 261.867 17.0368C262.919 17.0368 263.8 17.2024 264.51 17.5335C265.232 17.8524 265.771 18.2878 266.126 18.8397C266.48 19.3793 266.658 19.9803 266.658 20.6426C266.658 21.3049 266.493 21.8813 266.164 22.3719C265.847 22.8625 265.416 23.2488 264.871 23.5309C265.555 23.8498 266.081 24.2913 266.449 24.8555C266.816 25.4074 267 26.0574 267 26.8055C267 27.6763 266.772 28.4306 266.316 29.0683C265.859 29.6938 265.238 30.1721 264.453 30.5033C263.679 30.8344 262.818 31 261.867 31C260.917 31 260.048 30.8344 259.263 30.5033C258.489 30.1721 257.875 29.6938 257.419 29.0683C256.962 28.4306 256.734 27.6763 256.734 26.8055C256.734 26.0451 256.918 25.389 257.285 24.8371C257.653 24.2729 258.173 23.8375 258.844 23.5309ZM263.502 21.1209C263.502 20.618 263.35 20.2317 263.046 19.9619C262.754 19.6798 262.361 19.5388 261.867 19.5388C261.373 19.5388 260.974 19.6798 260.669 19.9619C260.378 20.244 260.232 20.6364 260.232 21.1393C260.232 21.6176 260.384 21.9978 260.688 22.2799C260.993 22.5497 261.385 22.6846 261.867 22.6846C262.349 22.6846 262.742 22.5436 263.046 22.2615C263.35 21.9794 263.502 21.5992 263.502 21.1209ZM261.867 24.8922C261.271 24.8922 260.79 25.0517 260.422 25.3706C260.055 25.6772 259.871 26.1064 259.871 26.6583C259.871 27.1735 260.048 27.5966 260.403 27.9277C260.771 28.2589 261.259 28.4244 261.867 28.4244C262.475 28.4244 262.951 28.2589 263.293 27.9277C263.648 27.5966 263.825 27.1735 263.825 26.6583C263.825 26.1187 263.641 25.6894 263.274 25.3706C262.919 25.0517 262.45 24.8922 261.867 24.8922Z" fill="#2FBF71"/>
<path d="M100.212 26.8055C100.393 27.7744 100.95 28.2589 101.881 28.2589C102.523 28.2589 102.976 27.9707 103.242 27.3942C103.509 26.8178 103.642 25.8795 103.642 24.5795C103.376 24.9597 103.013 25.2541 102.553 25.4626C102.093 25.671 101.579 25.7753 101.01 25.7753C100.236 25.7753 99.5466 25.6159 98.9417 25.297C98.3368 24.9658 97.8589 24.4814 97.5081 23.8436C97.1694 23.1936 97 22.4087 97 21.4888C97 20.5813 97.1815 19.7902 97.5444 19.1156C97.9194 18.4411 98.4457 17.9198 99.1232 17.5519C99.8127 17.184 100.623 17 101.555 17C103.345 17 104.597 17.5642 105.311 18.6925C106.025 19.8209 106.382 21.4827 106.382 23.6781C106.382 25.2724 106.237 26.5909 105.946 27.6334C105.668 28.6636 105.19 29.4485 104.513 29.9882C103.847 30.5278 102.934 30.7976 101.773 30.7976C100.853 30.7976 100.067 30.6137 99.4135 30.2457C98.7723 29.8778 98.2763 29.3933 97.9255 28.7924C97.5867 28.1914 97.3932 27.5291 97.3448 26.8055H100.212ZM101.718 23.2917C102.226 23.2917 102.632 23.1384 102.934 22.8318C103.236 22.5129 103.388 22.0837 103.388 21.544C103.388 20.9553 103.23 20.5015 102.916 20.1827C102.601 19.8638 102.178 19.7043 101.646 19.7043C101.113 19.7043 100.69 19.8699 100.375 20.2011C100.073 20.5199 99.9216 20.9615 99.9216 21.5256C99.9216 22.053 100.073 22.4823 100.375 22.8134C100.69 23.1323 101.137 23.2917 101.718 23.2917Z" fill="#2FBF71"/>
<path d="M110.215 23.5309C109.078 22.9177 108.509 21.9549 108.509 20.6426C108.509 19.9803 108.679 19.3793 109.017 18.8397C109.356 18.2878 109.87 17.8524 110.56 17.5335C111.249 17.2024 112.096 17.0368 113.1 17.0368C114.105 17.0368 114.945 17.2024 115.623 17.5335C116.312 17.8524 116.827 18.2878 117.165 18.8397C117.504 19.3793 117.673 19.9803 117.673 20.6426C117.673 21.3049 117.516 21.8813 117.202 22.3719C116.899 22.8625 116.488 23.2488 115.968 23.5309C116.621 23.8498 117.123 24.2913 117.474 24.8555C117.825 25.4074 118 26.0574 118 26.8055C118 27.6763 117.782 28.4306 117.347 29.0683C116.911 29.6938 116.318 30.1721 115.568 30.5033C114.83 30.8344 114.008 31 113.1 31C112.193 31 111.364 30.8344 110.614 30.5033C109.876 30.1721 109.29 29.6938 108.854 29.0683C108.419 28.4306 108.201 27.6763 108.201 26.8055C108.201 26.0451 108.376 25.389 108.727 24.8371C109.078 24.2729 109.574 23.8375 110.215 23.5309ZM114.661 21.1209C114.661 20.618 114.516 20.2317 114.225 19.9619C113.947 19.6798 113.572 19.5388 113.1 19.5388C112.629 19.5388 112.247 19.6798 111.957 19.9619C111.679 20.244 111.54 20.6364 111.54 21.1393C111.54 21.6176 111.685 21.9978 111.975 22.2799C112.266 22.5497 112.641 22.6846 113.1 22.6846C113.56 22.6846 113.935 22.5436 114.225 22.2615C114.516 21.9794 114.661 21.5992 114.661 21.1209ZM113.1 24.8922C112.532 24.8922 112.072 25.0517 111.721 25.3706C111.37 25.6772 111.195 26.1064 111.195 26.6583C111.195 27.1735 111.364 27.5966 111.703 27.9277C112.054 28.2589 112.52 28.4244 113.1 28.4244C113.681 28.4244 114.135 28.2589 114.461 27.9277C114.8 27.5966 114.97 27.1735 114.97 26.6583C114.97 26.1187 114.794 25.6894 114.443 25.3706C114.105 25.0517 113.657 24.8922 113.1 24.8922Z" fill="#2FBF71"/>
</svg>
