<svg width="815" height="240" viewBox="0 0 815 240" fill="none" xmlns="http://www.w3.org/2000/svg">
<mask id="mask0_836_1351" style="mask-type:alpha" maskUnits="userSpaceOnUse" x="-203" y="-1" width="1021" height="242">
<path d="M199.944 1C316.41 1.32193 432.819 3.79493 549.286 3.4291C589.656 44.8269 637.961 82.2736 682.125 121.52C700.472 137.822 720.831 151.563 740.184 166.884C768.111 189.024 788.722 216.154 814.964 239.494C476.983 237.68 138.982 234.768 -199 232.368C-132.503 193.814 -66.0123 155.279 0.471888 116.764C32.1915 98.3118 62.6145 80.9859 88.5089 57.675C104.611 43.1879 118.738 26.5645 141.227 17.1845C159.341 9.54588 180.978 7.40941 199.944 1Z" stroke="#4A3AFF" stroke-width="2" stroke-miterlimit="10"/>
<path d="M-157.507 208.296L314.92 211.647C385.637 212.145 452.424 210.857 522.482 202.955C614.602 192.595 696.079 206.248 787.329 214.047" stroke="#4A3AFF" stroke-width="2" stroke-miterlimit="10"/>
<path d="M-121.298 187.311C26.1078 188.355 173.526 189.438 320.958 190.56C388.848 191.087 448.882 189.814 514.817 176.468C551.704 168.99 587.991 162.069 626.446 163.957C672.893 166.225 718.547 179.775 763.233 188.467" stroke="#4A3AFF" stroke-width="2" stroke-miterlimit="10"/>
<path d="M-89.4414 168.83C49.1458 169.825 187.907 175.283 326.281 181.166C392.082 183.976 449.367 181.663 513.135 168.391C594.573 151.446 659.734 156.304 742.004 168.391" stroke="#4A3AFF" stroke-width="2" stroke-miterlimit="10"/>
<path d="M-61.1865 152.455C69.253 153.377 201.376 165.113 331.003 176.337C392.933 181.692 446.405 180.068 506.942 167.381C580.348 151.987 647.503 151.548 723.192 155.499" stroke="#4A3AFF" stroke-width="2" stroke-miterlimit="10"/>
<path d="M-35.9692 137.822C86.9226 138.7 213.685 152.134 335.222 165.494C393.475 171.889 444.567 170.045 501.465 158.47C571.446 144.246 634.169 142.578 706.394 143.09" stroke="#4A3AFF" stroke-width="2" stroke-miterlimit="10"/>
<path d="M-13.2104 124.696C105.424 126.013 223.323 136.622 339.015 154.445C396.919 163.357 445.67 160.387 501.968 147.129C566.994 131.866 623.524 129.144 691.337 129.569" stroke="#4A3AFF" stroke-width="2" stroke-miterlimit="10"/>
<path d="M7.16846 112.799C70.8593 113.72 134.57 116.618 198.202 118.769C249.198 120.481 293.787 135.129 342.421 145.372C394.113 156.245 436.148 155.177 486.64 142.27C553.544 125.164 606.726 117.071 677.674 117.569" stroke="#4A3AFF" stroke-width="2" stroke-miterlimit="10"/>
<path d="M25.728 101.985C81.2132 102.482 136.776 102.819 192.164 104.121C248.153 105.423 293.516 123.642 345.46 137.046C396.745 150.216 437.6 147.626 488.053 133.607C550.215 116.34 598.365 106.111 665.249 106.58" stroke="#4A3AFF" stroke-width="2" stroke-miterlimit="10"/>
<path d="M42.6812 92.3413C97.0245 92.4876 152.742 89.8243 206.969 93.0729C259.01 96.1899 300.135 116.296 348.343 128.954C398.835 142.212 439.922 139.08 489.737 124.271C546.596 107.355 592.114 96.1167 654.025 96.5557" stroke="#4A3AFF" stroke-width="2" stroke-miterlimit="10"/>
<path d="M58.1826 82.4785C109.429 80.9273 164.276 75.6886 215.465 80.3859C265.434 84.9808 305.166 107.867 350.936 121.55C393.3 134.222 432.838 132.773 475.434 120.657C534.035 103.975 579.051 86.927 643.806 87.3807" stroke="#4A3AFF" stroke-width="2" stroke-miterlimit="10"/>
<path d="M72.4272 71.6644C118.991 68.0354 171.128 60.1187 217.923 65.2843C268.241 70.8304 308.399 99.6141 353.395 114.965C452.095 148.621 535.004 78.5568 634.285 78.9519" stroke="#4A3AFF" stroke-width="2" stroke-miterlimit="10"/>
<path d="M85.4902 60.294C130.196 54.6894 185.623 43.0412 230.638 53.2699C277.337 63.9084 312.966 92.7069 355.504 109.594C449.328 146.836 531.501 73.1421 625.44 71.1812" stroke="#4A3AFF" stroke-width="2" stroke-miterlimit="10"/>
<path d="M97.7212 49.0411C141.13 41.9439 194.061 29.4031 237.373 42.8512C282.446 56.826 315.733 86.3854 357.536 104.589C447.199 143.616 528.21 69.5717 617.37 63.9818" stroke="#4A3AFF" stroke-width="2" stroke-miterlimit="10"/>
<path d="M109.004 38.6225C155.452 29.9888 204.318 18.6333 248.888 37.1591C289.355 54.0021 319.701 81.9225 359.433 99.5704C446.522 138.276 524.263 67.4502 609.861 57.3385" stroke="#4A3AFF" stroke-width="2" stroke-miterlimit="10"/>
<path d="M119.474 29.7397C164.431 21.1938 206.563 12.6626 249.314 30.1202C290.961 47.0948 320.92 76.7713 361.174 95.3556C442.941 133.037 524.185 64.6256 602.875 51.5873" stroke="#4A3AFF" stroke-width="2" stroke-miterlimit="10"/>
<path d="M129.267 23.1111C170.643 16.2042 210.259 9.2387 249.352 25.2915C290.826 42.2954 321.81 70.8744 362.819 88.3759C443.115 122.618 519.811 62.6212 596.41 46.6415" stroke="#4A3AFF" stroke-width="2" stroke-miterlimit="10"/>
<path d="M138.401 18.3258C179.681 12.6188 216.181 8.49219 254.52 23.9011C293.535 39.5588 325.003 64.1721 364.29 79.4347C441.586 109.448 516.889 58.5675 590.276 42.2513" stroke="#4A3AFF" stroke-width="2" stroke-miterlimit="10"/>
<path d="M146.975 14.9748C190.152 10.3945 224.542 9.01899 264.584 24.5157C299.419 37.993 329.9 57.631 365.781 69.5865C440.096 94.3607 513.89 53.1239 584.567 37.8613" stroke="#4A3AFF" stroke-width="2" stroke-miterlimit="10"/>
<path d="M155.006 12.6481C194.293 9.72138 226.709 9.72139 263.383 20.9305C299.032 31.8031 330.809 48.968 367.038 58.8309C439.186 78.4689 509.825 46.8755 579.148 33.3542" stroke="#4A3AFF" stroke-width="2" stroke-miterlimit="10"/>
<path d="M162.573 10.9943C242.482 7.21893 294.387 32.6517 368.374 48.4118C438.238 63.2793 506.361 39.9099 574.174 28.7446" stroke="#4A3AFF" stroke-width="2" stroke-miterlimit="10"/>
<path d="M169.696 9.70674C243.237 7.99464 299.593 27.8521 369.574 38.5784C437.194 48.9534 503.11 32.8421 569.433 24.0914" stroke="#4A3AFF" stroke-width="2" stroke-miterlimit="10"/>
<path d="M176.449 8.4776C244.823 8.11177 304.082 22.2622 370.715 29.3009C436.109 36.2225 500.38 25.8035 564.981 19.438" stroke="#4A3AFF" stroke-width="2" stroke-miterlimit="10"/>
<path d="M182.797 7.18991C247.359 7.29234 307.856 16.6284 371.76 20.9307C435.161 25.2036 497.652 19.2771 560.723 15.0041" stroke="#4A3AFF" stroke-width="2" stroke-miterlimit="10"/>
<path d="M188.816 5.551C312.366 5.40467 432.665 15.7943 556.698 10.7458" stroke="#4A3AFF" stroke-width="2" stroke-miterlimit="10"/>
<path d="M194.525 3.5459C314.166 3.1508 433.129 9.17975 552.905 6.89695" stroke="#4A3AFF" stroke-width="2" stroke-miterlimit="10"/>
<path d="M535.855 3.45825C570.11 45.734 615.802 81.9662 655.844 121.345C671.326 136.505 686.615 147.685 704.923 160.489C735.675 181.927 751.893 213.666 775.891 239.319" stroke="#4A3AFF" stroke-width="2" stroke-miterlimit="10"/>
<path d="M522.423 3.51657C551.452 47.4166 593.042 80.8978 629.697 121.154C644.308 137.251 658.107 146.206 676.299 158.733C706.103 179.219 717.618 212.583 736.971 239.011" stroke="#4A3AFF" stroke-width="2" stroke-miterlimit="10"/>
<path d="M508.974 3.56091C522.618 29.1839 533.842 52.2168 557.047 73.523C573.803 88.7182 589.314 104.674 603.494 121.301C616.906 137.149 626.582 144.714 644.542 155.645C674.849 174.186 682.764 212.028 697.995 238.631" stroke="#4A3AFF" stroke-width="2" stroke-miterlimit="10"/>
<path d="M495.542 3.59024C507.657 32.3887 516.405 57.9971 539.474 82.5079C552.363 96.2194 565.581 109.36 577.27 123.789C583.721 131.661 589.889 139.632 595.772 147.7C598.14 149.834 601.103 151.546 604.449 152.712C607.795 153.879 611.441 154.471 615.125 154.446C643.419 170.791 648.025 213.901 659.056 238.236" stroke="#4A3AFF" stroke-width="2" stroke-miterlimit="10"/>
<path d="M482.112 3.60461C492.021 33.8079 497.711 63.4989 519.154 90.1316C529.585 103.082 541.236 115.389 551.048 128.72C556.634 135.939 561.84 143.304 566.666 150.816C568.407 152.795 570.869 154.351 573.753 155.296C576.637 156.241 579.822 156.535 582.922 156.143C605.662 178.649 609.784 210.286 619.983 237.972" stroke="#4A3AFF" stroke-width="2" stroke-miterlimit="10"/>
<path d="M468.681 3.57568C476.925 36.8666 480.97 69.7331 500.671 100.156C508.296 111.862 517.16 123.379 524.824 135.173C531.423 145.314 543.19 154.197 548.976 160.826C567.942 182.512 572.703 210.667 580.986 237.592" stroke="#4A3AFF" stroke-width="2" stroke-miterlimit="10"/>
<path d="M455.23 3.50204C464.365 54.031 474.002 95.5751 498.6 142.021C503.458 151.182 512.805 160.84 517.257 167.249C531.694 187.97 535.7 213.14 541.97 237.328" stroke="#4A3AFF" stroke-width="2" stroke-miterlimit="10"/>
<path d="M441.799 3.38522C447.895 54.002 454.436 100.068 472.396 148.416C483.834 179.234 496.007 203.423 502.974 237.226" stroke="#4A3AFF" stroke-width="2" stroke-miterlimit="10"/>
<path d="M428.368 3.20987C431.832 54.1047 435.626 103.39 446.173 153.494C452.134 181.825 459.991 207.945 463.978 237.139" stroke="#4A3AFF" stroke-width="2" stroke-miterlimit="10"/>
<path d="M414.937 2.98984C416.407 81.1905 421.671 158.835 424.981 236.875" stroke="#4A3AFF" stroke-width="2" stroke-miterlimit="10"/>
<path d="M401.487 2.91696C399.184 81.3225 391.152 158.484 386.004 236.509" stroke="#4A3AFF" stroke-width="2" stroke-miterlimit="10"/>
<path d="M388.055 2.90234C383.933 53.8411 379.443 102.98 367.522 152.997C360.806 181.166 352.039 207.491 346.988 236.231" stroke="#4A3AFF" stroke-width="2" stroke-miterlimit="10"/>
<path d="M374.625 2.81445C367.6 53.3581 358.736 99.6873 341.299 148.285C330.558 178.224 316.779 205.121 308.05 235.953" stroke="#4A3AFF" stroke-width="2" stroke-miterlimit="10"/>
<path d="M361.174 2.62439C351.312 50.2228 335.892 97.0668 315.095 142.607C300.696 174.552 281.943 202.823 268.996 235.631" stroke="#4A3AFF" stroke-width="2" stroke-miterlimit="10"/>
<path d="M347.743 2.47787C322.584 86.6782 269.905 156.318 229.98 235.412" stroke="#4A3AFF" stroke-width="2" stroke-miterlimit="10"/>
<path d="M334.312 2.25833C315.636 47.5193 286.762 87.4098 262.706 131.032C242.482 167.615 213.317 198.931 191.1 235.163" stroke="#4A3AFF" stroke-width="2" stroke-miterlimit="10"/>
<path d="M320.882 2.0387C296.652 45.1486 261.603 83.4879 236.444 126.759C213.879 165.683 179.179 197.394 152.007 234.855" stroke="#4A3AFF" stroke-width="2" stroke-miterlimit="10"/>
<path d="M307.431 1.83423C291.077 23.3306 267.234 37.6274 252.449 59.1385C237.663 80.6495 223.903 102.892 210.22 124.769C184.945 165.113 144.691 196.619 112.991 234.519" stroke="#4A3AFF" stroke-width="2" stroke-miterlimit="10"/>
<path d="M294 1.62915C272.925 22.1158 247.553 29.3008 231.78 52.524C215.562 76.3178 200.815 100.419 183.997 124.096C155.239 164.703 109.643 196.604 73.9946 234.299" stroke="#4A3AFF" stroke-width="2" stroke-miterlimit="10"/>
<path d="M280.569 1.4538C264.642 13.0288 258.778 12.5605 242.308 19.7162C223.633 27.8231 216.917 39.0761 207.976 53.8997C193.152 78.4691 176.315 100.185 157.774 123.174C124.874 163.928 74.5562 196.575 34.9985 234.022" stroke="#4A3AFF" stroke-width="2" stroke-miterlimit="10"/>
<path d="M267.138 1.30737C251.094 16.1456 237.798 8.09726 219.394 15.809C205.034 21.838 197.467 37.481 190.79 47.7829C173.985 73.7494 154.167 98.5379 131.57 121.857C92.7086 162.304 39.9329 196.121 -3.99854 233.744" stroke="#4A3AFF" stroke-width="2" stroke-miterlimit="10"/>
<path d="M253.687 1.16089C236.579 13.8773 219.781 5.9899 201.434 14.3309C186.823 20.9598 177.707 38.1687 170.14 48.8217C152.038 74.3928 130.305 98.3965 105.327 120.408C60.3311 160.518 5.44588 195.536 -43.0142 233.451" stroke="#4A3AFF" stroke-width="2" stroke-miterlimit="10"/>
<path d="M240.314 1.16089C223.032 10.8921 203.447 6.42889 186.126 14.0968C166.56 22.8768 157.096 41.5489 145.872 55.436C127.064 78.6287 104.641 100.03 79.0842 119.179C27.4503 158.572 -28.8478 194.965 -82.0493 233.246" stroke="#4A3AFF" stroke-width="2" stroke-miterlimit="10"/>
<path d="M226.767 1.073C209.001 10.4091 188.893 7.11657 170.991 14.6089C151.638 22.7304 141.304 39.1782 129.324 52.4214C107.518 76.549 81.8336 98.5356 52.8604 117.876C-4.34719 156.816 -63.2579 194.438 -121.065 232.924" stroke="#4A3AFF" stroke-width="2" stroke-miterlimit="10"/>
<path d="M213.395 1.04388C194.874 7.49719 173.76 8.36056 156.071 15.6772C133.641 24.9109 119.532 44.4025 104.824 59.2261C82.2779 81.937 55.5513 99.1605 26.6959 117.042C-35.5048 155.606 -97.7377 194.141 -160.003 232.646" stroke="#4A3AFF" stroke-width="2" stroke-miterlimit="10"/>
</mask>
<g mask="url(#mask0_836_1351)">
<ellipse cx="419.961" cy="105.816" rx="206.268" ry="108.179" fill="url(#paint0_radial_836_1351)"/>
</g>
<defs>
<radialGradient id="paint0_radial_836_1351" cx="0" cy="0" r="1" gradientUnits="userSpaceOnUse" gradientTransform="translate(419.961 105.816) rotate(90) scale(108.179 206.268)">
<stop stop-color="#232323"/>
<stop offset="1" stop-color="#232323" stop-opacity="0"/>
</radialGradient>
</defs>
</svg>
